<svg xmlns="http://www.w3.org/2000/svg" height="487.242" width="488.287"><g transform="translate(55.01 51.27)"><circle r="47.406" cy="20.333" cx="251.064" color="#fff" overflow="visible" fill="none" stroke="#fff" stroke-width="4.915" stroke-linecap="round"/><circle r="1.378" cy="20.333" cx="251.064" color="#fff" overflow="visible" fill="none" stroke="#fff" stroke-width="4.462" stroke-linecap="round"/><path d="M251.53 20.868L231.545.88M251.064 19.776v42.386" fill="none" stroke="#fff" stroke-width="3.346" stroke-linecap="round"/><path d="M327.24-6.697l9.828 9.83 19.658-24.573M327.24 22.79l9.828 9.83 19.658-24.573M327.24 52.278l9.828 9.83 19.658-24.574" fill="none" stroke="#fff" stroke-width="4.915" stroke-linecap="round" stroke-linejoin="round"/><path d="M366.555-6.697h44.23M366.555 22.79h34.402M366.555 52.278h44.23" fill="none" stroke="#fff" stroke-width="4.915" stroke-linecap="round"/><path d="M123.136 160.397l9.98 17.27 9.98-17.27h30.34v-57.625h-80.64v57.625" fill="none" stroke="#fff" stroke-width="5.376" stroke-linecap="round" stroke-linejoin="round"/><path fill="#fff" d="M108.543 127.96h9.83v9.83h-9.83zM128.2 127.96h9.83v9.83h-9.83zM147.86 127.96h9.828v9.83h-9.83z"/><path d="M260.28 165.926h13.82v9.215h-46.073v-9.214h13.822v-9.215l-13.823-9.214v-46.073H274.1v46.073l-13.82 9.215M218.812 115.245h-9.214v23.037M283.316 115.245h9.214v23.037" fill="none" stroke="#fff" stroke-width="4.915" stroke-linecap="round" stroke-linejoin="round"/></g><path d="M93.134 72.373l24.326-24.325-17.375-17.376-72.977 72.977-5.142 15.718 5.142-1.82-3.475-3.474" fill="none" stroke="#fff" stroke-width="3.932" stroke-linecap="round" stroke-linejoin="round"/><path d="M107.035 44.573l-69.502 69.5-6.95-6.95M107.035 30.672l6.95-6.95 3.475 3.475-6.95 6.95" fill="none" stroke="#fff" stroke-width="3.932" stroke-linecap="round" stroke-linejoin="round"/><path d="M202.313 95.113c10.732-15.69 20.213-24.593 20.213-38.254 0-19.672-15.402-34.403-34.402-34.403s-34.4 14.73-34.4 34.402c0 19.67 19.657 29.473 34.4 63.888" color="#fff" overflow="visible" fill="none" stroke="#fff" stroke-width="4.915" stroke-linecap="round" stroke-linejoin="round"/><path d="M197.953 56.846a9.83 9.83 0 0 1-9.83 9.83 9.83 9.83 0 0 1-9.828-9.83 9.83 9.83 0 0 1 9.83-9.83 9.83 9.83 0 0 1 9.828 9.83z" color="#fff" overflow="visible" fill="none" stroke="#fff" stroke-width="4.915" stroke-linecap="round" stroke-linejoin="round"/><path style="line-height:125%;-inkscape-font-specification:'Roboto Light';text-align:start" d="M301.803 29.517c-.308 0-.588.118-.78.31v-.003l-2.088 2.028.043-.035c-.377.26-.54.696-.54 1.096 0 .284.09.56.26.785.173.225.448.4.77.4.255 0 .482-.103.69-.31a.324.324 0 0 0 .023-.024l.132-.16V43.88c0 .347.21.64.472.8.262.162.576.23.897.23.312 0 .628-.068.897-.225.27-.157.503-.446.503-.806V30.547c0-.346-.21-.626-.455-.79a1.49 1.49 0 0 0-.822-.24zm7.188.03c-1.165 0-2.266.374-3.086 1.05-.82.674-1.354 1.666-1.354 2.838 0 .5.108.883.354 1.145.245.26.59.347.923.347.826 0 1.46-.488 1.46-1.123 0-.613.19-1.006.485-1.27.293-.262.716-.402 1.22-.402.683 0 1.123.24 1.417.578.294.338.437.796.437 1.217 0 .66-.35 1.263-.937 1.872-.586.607-1.395 1.196-2.217 1.797-.822.602-1.657 1.215-2.304 1.907-.647.692-1.116 1.485-1.116 2.41v1.965c0 .343.212.614.45.778.24.164.518.252.796.252h7.157c.324 0 .58-.198.752-.438.172-.24.278-.544.278-.87 0-.325-.11-.62-.287-.848-.176-.227-.437-.398-.743-.398h-5.573v-.443c0-.426.32-.876.904-1.378.584-.503 1.394-1.03 2.217-1.628 1.646-1.195 3.39-2.716 3.39-5.042 0-2.59-2.145-4.317-4.624-4.317z" font-weight="300" font-size="20.464" font-family="Roboto" letter-spacing="0" word-spacing="0" fill="#fff"/><path d="M48.06 162.52l14.744-14.743v24.573H38.232v58.974h49.145" fill="none" stroke="#fff" stroke-width="3.932" stroke-linecap="round" stroke-linejoin="round"/><path d="M48.06 177.265h9.83v9.83h-9.83zM48.06 192.008h9.83v9.83h-9.83zM48.06 206.752h9.83v9.83h-9.83z" fill="#fff"/><path d="M62.804 182.18H92.29M62.804 196.923H92.29M62.804 211.666H92.29" fill="none" stroke="#fff" stroke-width="2.949" stroke-linecap="round"/><path d="M426.478 153.586v33.508h-13.403M392.077 196.923c24.572 5.897 44.23 1.965 62.995-3.128 0 6.702-1.787 32.615-28.594 32.615M406.82 211.666c19.658 4.915 39.317 0 45.57-5.808" fill="none" stroke="#fff" stroke-width="4.915" stroke-linecap="round" stroke-linejoin="round"/><path d="M48.06 265.726v14.743M92.29 265.726v14.743M38.232 275.555h63.888M38.232 290.298h63.888" fill="none" stroke="#fff" stroke-width="3.932" stroke-linecap="round" stroke-linejoin="round"/><path style="line-height:125%;-inkscape-font-specification:'Bebas Neue Bold';text-align:start" d="M49.453 301.545c0-1.414.622-1.95 1.612-1.95.99 0 1.612.536 1.612 1.95v10.692c0 1.414-.622 1.95-1.612 1.95-.99 0-1.612-.536-1.612-1.95v-10.692zm-3.11 10.494c0 3.166 1.667 4.977 4.722 4.977 3.055 0 4.723-1.81 4.723-4.978v-10.297c0-3.167-1.668-4.978-4.723-4.978-3.055 0-4.723 1.81-4.723 4.978v10.296zM66.946 301.743c0-3.167-1.67-4.978-4.724-4.978-3.054 0-4.723 1.81-4.723 4.978v3.62c0 2.914 1.16 4.526 3.45 4.526 1.386 0 2.347-.623 2.885-1.754v3.62c0 1.895-.623 2.432-1.726 2.432-.99 0-1.613-.537-1.613-1.95v-.708h-2.94v.51c0 3.166 1.583 4.977 4.637 4.977 3.225 0 4.752-1.81 4.752-5.148v-10.127zm-4.724 5.318c-.99 0-1.612-.537-1.612-1.95v-3.565c0-1.414.623-1.923 1.612-1.923.99 0 1.613.51 1.613 1.923v3.564c0 1.413-.623 1.95-1.613 1.95z" font-weight="700" font-family="Bebas Neue" letter-spacing="0" word-spacing="0" fill="#fff"/><path d="M72.633 300.127h4.915v4.915h-4.915zM82.462 300.127h4.915v4.915h-4.915zM92.29 300.127h4.916v4.915H92.29zM92.29 309.957h4.916v4.914H92.29zM82.462 309.957h4.915v4.914h-4.915zM72.633 309.957h4.915v4.914h-4.915zM72.633 319.786h4.915v4.914h-4.915zM82.462 319.786h4.915v4.914h-4.915zM92.29 319.786h4.916v4.914H92.29zM92.29 329.615h4.916v4.914H92.29zM82.462 329.615h4.915v4.914h-4.915zM72.633 329.615h4.915v4.914h-4.915zM62.804 319.786h4.915v4.914h-4.916zM62.804 329.615h4.915v4.914h-4.916zM52.975 319.786h4.915v4.914h-4.915zM43.146 319.786h4.915v4.914h-4.914zM43.146 329.615h4.915v4.914h-4.914zM52.975 329.615h4.915v4.914h-4.915z" fill="#fff"/><path d="M207.782 285.384a19.658 19.658 0 0 1-19.658 19.658 19.658 19.658 0 0 1-19.658-19.658 19.658 19.658 0 0 1 19.658-19.658 19.658 19.658 0 0 1 19.658 19.658z" color="#fff" overflow="visible" fill="none" stroke="#fff" stroke-width="4.915" stroke-linecap="round" stroke-linejoin="round"/><path d="M200.41 349.273h24.573l-19.658-34.402h-34.402l-19.658 34.403h24.573" fill="none" stroke="#fff" stroke-width="4.915" stroke-linecap="round" stroke-linejoin="round"/><path d="M193.53 316.345a5.406 5.406 0 0 1-2.703 4.682 5.406 5.406 0 0 1-5.406 0 5.406 5.406 0 0 1-2.702-4.682" color="#fff" overflow="visible" fill="#fff"/><path d="M188.124 324.7c-2.457 0-6.717 13.15-4.914 19.658.618 2.233 4.914 4.915 4.914 4.915s4.296-2.682 4.915-4.915c1.802-6.51-2.458-19.658-4.916-19.658z" fill="#fff"/><path d="M299.083 332.68l-18.19-18.19 27.286-39.414 30.316 30.317-30.02 20.783" fill="none" stroke="#fff" stroke-width="4.915" stroke-linecap="round" stroke-linejoin="round"/><path d="M274.83 314.49l-6.064 12.126 18.19 18.19 4.575-2.287 7.553 8.35 27.762-19.22-8.714-12.157" fill="none" stroke="#fff" stroke-width="4.915" stroke-linecap="round" stroke-linejoin="round"/><path d="M315.327 269.907l3.032-9.096M343.665 298.245l9.096-3.032M336.262 277.31l6.67-6.67" fill="none" stroke="#fff" stroke-width="4.915"/><path d="M449.58 266.737l-36.857 63.842M417.637 322.066l20.14-5.396.66-10.97 4.255 2.458 12.286-21.28-8.512-4.915 7.138-.214-4.023-15.013-20.14 5.397-4.913 8.512 1.8 6.713-6.715 1.798-7.37 12.768zM427.466 305.042l-1.8-6.713M437.295 288.018l6.713-1.8" fill="none" stroke="#fff" stroke-width="2.949" stroke-linecap="round" stroke-linejoin="round"/><path d="M402.893 329.615h19.66v4.914l9.828 4.914v9.83h-39.316v-9.83l9.83-4.915z" fill="#fff" stroke="#fff" stroke-width="2.949" stroke-linecap="round" stroke-linejoin="round"/><path d="M80.352 463.437c20.973-5.62 33.42-27.18 27.8-48.152-5.62-20.974-27.178-33.42-48.152-27.8-20.974 5.62-33.42 27.177-27.8 48.15.205.768.453 1.52.7 2.262 1.415-3.4 4.326-6.152 8.158-7.178 6.554-1.758 13.29 2.132 15.047 8.686 1.756 6.555-2.133 13.292-8.688 15.048-1.11.297-2.228.425-3.323.413 9.55 8.46 23.01 12.12 36.258 8.57z" color="#fff" overflow="visible" fill="none" stroke="#fff" stroke-width="4.915" stroke-linecap="round" stroke-linejoin="round"/><path d="M67.045 451.752a7.372 7.372 0 0 1 5.213-9.03 7.372 7.372 0 0 1 9.028 5.214 7.372 7.372 0 0 1-5.213 9.028 7.372 7.372 0 0 1-9.028-5.212z" color="#fff" overflow="visible" fill="none" stroke="#fff" stroke-width="4.915"/><path d="M71.646 398.05a4.915 4.915 0 0 1-4.915 4.915 4.915 4.915 0 0 1-4.913-4.915 4.915 4.915 0 0 1 4.914-4.915 4.915 4.915 0 0 1 4.916 4.915zM79.134 418.777a4.915 4.915 0 0 1-4.915 4.914 4.915 4.915 0 0 1-4.915-4.913 4.915 4.915 0 0 1 4.914-4.915 4.915 4.915 0 0 1 4.914 4.915zM97.722 432.475a4.915 4.915 0 0 1-4.914 4.915 4.915 4.915 0 0 1-4.915-4.915 4.915 4.915 0 0 1 4.915-4.914 4.915 4.915 0 0 1 4.914 4.915zM97.33 406.975a4.915 4.915 0 0 1-4.914 4.915 4.915 4.915 0 0 1-4.914-4.915 4.915 4.915 0 0 1 4.914-4.914 4.915 4.915 0 0 1 4.915 4.915zM53.09 418.253a4.915 4.915 0 0 1-4.913 4.915 4.915 4.915 0 0 1-4.915-4.915 4.915 4.915 0 0 1 4.915-4.914 4.915 4.915 0 0 1 4.914 4.913z" color="#fff" overflow="visible" fill="#fff"/><path d="M227.44 425.448a39.316 39.316 0 0 1-39.316 39.316 39.316 39.316 0 0 1-39.316-39.316 39.316 39.316 0 0 1 39.316-39.316 39.316 39.316 0 0 1 39.316 39.316z" color="#fff" overflow="visible" fill="none" stroke="#fff" stroke-width="4.915" stroke-linecap="round" stroke-linejoin="round"/><path d="M200.41 425.448a12.286 12.286 0 0 1-12.286 12.286 12.286 12.286 0 0 1-12.286-12.286 12.286 12.286 0 0 1 12.286-12.287 12.286 12.286 0 0 1 12.287 12.288z" color="#fff" overflow="visible" fill="none" stroke="#fff" stroke-width="4.915" stroke-linecap="round" stroke-linejoin="round"/><path d="M200.41 427.905V388.59M175.838 427.905v34.402M185.667 437.734h39.316M190.582 413.16h-39.317M196.177 416.348l-25.254-25.254M199.725 428.66l22.607-22.606M185.116 437.636l20.21 24.67M176.35 422.61l-22.36 22.36" fill="none" stroke="#fff" stroke-width="4.915"/></svg>