<svg xmlns="http://www.w3.org/2000/svg" width="2737.334" height="2737.334"><g fill="none" stroke="#000" stroke-linecap="round"><path d="M1982.516 347.764a273.547 273.547 0 1 1-547.095 0 273.547 273.547 0 1 1 547.096 0z" color="#000" stroke-width="28.35882246" overflow="visible"/><path d="M1716.92 347.764a7.952 7.952 0 1 1-15.904 0 7.952 7.952 0 1 1 15.904 0z" color="#000" stroke-width="25.74496" overflow="visible"/><path d="M1711.665 350.85L1596.33 235.514M1708.968 344.545V589.13" stroke-width="19.30923"/></g><path d="M2148.524 191.792l56.717 56.717 113.434-141.793M2148.524 361.943l56.717 56.717 113.434-141.793M2148.524 532.093l56.717 56.717 113.434-141.792" fill="none" stroke="#000" stroke-width="28.358" stroke-linecap="round" stroke-linejoin="round"/><path d="M2375.39 191.792h255.227M2375.39 361.943h198.51M2375.39 532.093h255.227" fill="none" stroke="#000" stroke-width="28.358" stroke-linecap="round"/><path d="M970.78 1155.98l57.586 99.657 57.584-99.658h175.08V823.462H795.702v332.516" fill="none" stroke="#000" stroke-width="31.022" stroke-linecap="round" stroke-linejoin="round"/><path d="M886.574 968.812h56.717v56.717h-56.716zM1000.007 968.812h56.717v56.717h-56.717zM1113.44 968.812h56.718v56.717h-56.717z"/><g fill="none" stroke="#000" stroke-width="5" stroke-linecap="round" stroke-linejoin="round"><path d="M1762.14 1187.882h79.758v53.172h-265.86v-53.172h79.758v-53.172l-79.758-53.172v-265.86h265.86v265.86l-79.758 53.172M1522.866 895.436h-53.172v132.93M1895.07 895.436h53.172v132.93" stroke-width="28.358449999999998"/></g><g stroke-width="4" fill="none" stroke="#000" stroke-linecap="round" stroke-linejoin="round"><path d="M480.242 352.212L620.61 211.845 520.346 111.582l-421.1 421.102-29.673 90.706 29.672-10.497-20.053-20.052" stroke-width="22.68676"/><path d="M560.452 191.792l-401.05 401.05-40.104-40.106M560.452 111.582l40.105-40.104L620.61 91.53l-40.106 40.105" stroke-width="22.68676"/></g><g color="#000" fill="none" stroke="#000" stroke-width="5" stroke-linecap="round" stroke-linejoin="round"><path d="M1110.24 483.427c61.926-90.544 116.635-141.91 116.635-220.74 0-113.505-88.876-198.508-198.51-198.508-109.633 0-198.508 85.002-198.508 198.508 0 113.507 113.434 170.078 198.51 368.66" overflow="visible" stroke-width="28.358449999999998"/><path d="M1085.083 262.616c0 31.323-25.393 56.716-56.717 56.716-31.324 0-56.717-25.393-56.717-56.716 0-31.324 25.392-56.717 56.716-56.717s56.717 25.392 56.717 56.716z" overflow="visible" stroke-width="28.358449999999998"/></g><path style="text-align:start;line-height:125%;-inkscape-font-specification:Roboto Light" d="M1684.332 104.84c-1.724 0-3.143.894-4.254 1.95l-.178-.178-11.875 11.52-.177.178c-2.02 1.52-3.013 3.972-3.013 6.204 0 1.638.606 3.312 1.595 4.608.99 1.296 2.566 2.304 4.43 2.304 1.464 0 2.696-.745 3.9-1.95a1.872 1.872 0 0 0 .178 0l.71-.886v59.198c0 2.01 1.322 3.68 2.835 4.61 1.512.928 3.293 1.416 5.14 1.416 1.8 0 3.587-.51 5.14-1.417 1.552-.907 3.013-2.53 3.013-4.61v-76.92c0-1.996-1.24-3.668-2.66-4.61-1.417-.94-3.136-1.417-4.785-1.417zm41.474.177c-6.727 0-12.992 2.306-17.724 6.204-4.732 3.898-7.976 9.54-7.976 16.307 0 2.88.71 5.048 2.127 6.558 1.416 1.51 3.402 2.126 5.317 2.126 4.765 0 8.508-2.894 8.508-6.556 0-3.536.965-5.75 2.658-7.267 1.694-1.52 4.188-2.304 7.09-2.304 3.948 0 6.452 1.236 8.153 3.19 1.7 1.954 2.48 4.66 2.48 7.09 0 3.806-1.935 7.302-5.317 10.81-3.382 3.51-8.016 6.987-12.76 10.458-4.746 3.472-9.562 6.997-13.294 10.99-3.733 3.994-6.56 8.495-6.56 13.825v11.343c0 1.986 1.282 3.484 2.66 4.43 1.377.95 3.007 1.596 4.608 1.596h41.297c1.87 0 3.258-1.272 4.254-2.658.994-1.386 1.77-3.085 1.77-4.963 0-1.878-.744-3.653-1.77-4.963-1.03-1.31-2.49-2.304-4.255-2.304h-32.08v-2.48c0-2.46 1.77-5.08 5.14-7.977 3.37-2.9 8.013-5.947 12.76-9.395 9.496-6.895 19.674-15.65 19.674-29.067 0-14.945-12.456-24.99-26.764-24.99z" font-size="20.464" font-weight="300" letter-spacing="0" word-spacing="0" font-family="Roboto"/><path d="M220.15 872.394l85.076-85.075v141.79H163.434v340.303h283.584" fill="none" stroke="#000" stroke-width="22.687" stroke-linecap="round" stroke-linejoin="round"/><path d="M220.15 957.47h56.718v56.717H220.15zM220.15 1042.545h56.718v56.717H220.15zM220.15 1127.62h56.718v56.717H220.15z"/><path d="M305.226 985.828h170.15M305.226 1070.903h170.15M305.226 1155.98h170.15" fill="none" stroke="#000" stroke-width="17.015" stroke-linecap="round"/><path d="M2403.75 820.834v193.353h-77.34M2205.24 1070.903c141.793 34.03 255.227 11.344 363.504-18.046 0 38.67-10.312 188.197-164.994 188.197M2290.316 1155.98c113.434 28.357 226.867 0 262.96-33.516" fill="none" stroke="#000" stroke-width="28.358" stroke-linecap="round" stroke-linejoin="round"/><path d="M220.15 1467.92v85.077M475.376 1467.92v85.077M163.434 1524.638h368.66M163.434 1609.714h368.66" fill="none" stroke="#000" stroke-width="22.687" stroke-linecap="round" stroke-linejoin="round"/><text style="text-align:start;line-height:125%;-inkscape-font-specification:Roboto Light" x="196.019" y="1762.849" font-size="129.669" font-weight="300" letter-spacing="0" word-spacing="0" font-family="Roboto"><tspan x="196.019" y="1762.849" style="-inkscape-font-specification:ITC Avant Garde Gothic Std Bold Condensed" font-weight="700" font-stretch="condensed" font-family="ITC Avant Garde Gothic Std">09</tspan></text><path d="M361.943 1666.43H390.3v28.358h-28.357zM418.66 1666.43h28.358v28.358H418.66zM475.376 1666.43h28.358v28.358h-28.358zM475.376 1723.148h28.358v28.358h-28.358zM418.66 1723.148h28.358v28.358H418.66zM361.943 1723.148H390.3v28.358h-28.357zM361.943 1779.864H390.3v28.358h-28.357zM418.66 1779.864h28.358v28.358H418.66zM475.376 1779.864h28.358v28.358h-28.358zM475.376 1836.58h28.358v28.36h-28.358zM418.66 1836.58h28.358v28.36H418.66zM361.943 1836.58H390.3v28.36h-28.357zM305.226 1779.864h28.358v28.358h-28.358zM305.226 1836.58h28.358v28.36h-28.358zM248.51 1779.864h28.357v28.358H248.51zM191.792 1779.864h28.358v28.358h-28.358zM191.792 1836.58h28.358v28.36h-28.358zM248.51 1836.58h28.357v28.36H248.51z"/><path d="M1141.8 1581.355a113.434 113.434 0 1 1-226.868 0 113.434 113.434 0 1 1 226.868 0z" color="#000" fill="none" stroke="#000" stroke-width="28.358449999999998" stroke-linecap="round" stroke-linejoin="round" overflow="visible"/><path d="M1099.262 1950.015h141.792l-113.434-198.51H929.11l-113.432 198.51H957.47" fill="none" stroke="#000" stroke-width="28.358" stroke-linecap="round" stroke-linejoin="round"/><path d="M1059.56 1760.013a31.194 31.194 0 1 1-62.388 0" color="#000" overflow="visible"/><path d="M1028.366 1808.223c-14.18 0-38.762 75.873-28.36 113.433 3.57 12.884 28.36 28.36 28.36 28.36s24.79-15.476 28.358-28.36c10.404-37.56-14.18-113.433-28.358-113.433z"/><g fill="none" stroke="#000" stroke-width="5.731"><path d="M1668.638 1854.264L1563.673 1749.3l157.447-227.425 174.94 174.94-173.22 119.924" stroke-linecap="round" stroke-linejoin="round" stroke-width="28.35750379"/><path d="M1528.685 1749.3l-34.99 69.975 104.966 104.965 26.395-13.197 43.583 48.185 160.19-110.9-50.282-70.155" stroke-linecap="round" stroke-linejoin="round" stroke-width="28.35750379"/><path d="M1762.37 1492.045l17.494-52.482M1925.89 1655.566l52.483-17.494M1883.17 1534.767l38.486-38.487" stroke-width="28.35750379"/></g><g stroke="#000" stroke-width="3" stroke-linecap="round" stroke-linejoin="round"><g fill="none"><path d="M2537.062 1473.757l-212.69 368.387M2352.732 1793.025l116.215-31.14 3.8-63.297 24.558 14.18 70.896-122.796-49.117-28.36 41.19-1.234-23.21-86.62-116.216 31.14-28.36 49.117 10.38 38.738-38.737 10.38-42.538 73.677zM2409.45 1694.79l-10.38-38.74M2466.165 1596.552l38.74-10.38" stroke-width="17.01507"/></g><path d="M2267.656 1836.58h113.434v28.36l56.717 28.358v56.717H2210.94v-56.717l56.716-28.36z" stroke-width="17.01507"/></g><path d="M406.48 2608.78c121.027-32.43 192.85-156.828 160.42-277.854-32.428-121.026-156.828-192.85-277.854-160.42-121.026 32.43-192.848 156.83-160.42 277.855 1.185 4.423 2.62 8.757 4.046 13.046 8.165-19.613 24.962-35.497 47.07-41.42 37.82-10.135 76.694 12.31 86.828 50.13s-12.31 76.696-50.13 86.83c-6.406 1.716-12.857 2.455-19.178 2.386 55.108 48.817 132.784 69.93 209.22 49.448z" color="#000" fill="none" stroke="#000" stroke-width="28.358" stroke-linecap="round" stroke-linejoin="round" overflow="visible"/><path d="M329.697 2541.353a42.538 42.538 0 1 1 82.176-22.02 42.538 42.538 0 1 1-82.176 22.02z" color="#000" fill="none" stroke="#000" stroke-width="28.355597489999997" overflow="visible"/><path d="M356.245 2231.476a28.358 28.358 0 1 1-56.716 0 28.358 28.358 0 1 1 56.715 0zM399.453 2351.077a28.358 28.358 0 1 1-56.717 0 28.358 28.358 0 1 1 56.717 0zM506.714 2430.122a28.358 28.358 0 1 1-56.717 0 28.358 28.358 0 1 1 56.717 0zM504.457 2282.978a28.358 28.358 0 1 1-56.717 0 28.358 28.358 0 1 1 56.717 0zM249.18 2348.055a28.358 28.358 0 1 1-56.717 0 28.358 28.358 0 1 1 56.717 0z" color="#000" overflow="visible"/><path d="M1255.233 2389.57a226.867 226.867 0 1 1-453.735 0 226.867 226.867 0 1 1 453.735 0z" color="#000" fill="none" stroke="#000" stroke-width="28.358449999999998" stroke-linecap="round" stroke-linejoin="round" overflow="visible"/><path d="M1099.262 2389.57a70.896 70.896 0 1 1-141.792 0 70.896 70.896 0 1 1 141.792 0z" color="#000" fill="none" stroke="#000" stroke-width="28.3584" stroke-linecap="round" stroke-linejoin="round" overflow="visible"/><path d="M1099.262 2403.75v-226.868M957.47 2403.75v198.51M1014.187 2460.466h226.867M1042.545 2318.674H815.678M1074.834 2337.063L929.11 2191.34M1095.307 2408.115l130.45-130.45M1011.008 2459.9l116.612 142.36M960.428 2373.19l-129.03 129.03" fill="none" stroke="#000" stroke-width="28.358"/></svg>