<?xml version="1.0" encoding="UTF-8" standalone="no"?>
<!-- Created with Inkscape (http://www.inkscape.org/) -->

<svg
   xmlns:dc="http://purl.org/dc/elements/1.1/"
   xmlns:cc="http://creativecommons.org/ns#"
   xmlns:rdf="http://www.w3.org/1999/02/22-rdf-syntax-ns#"
   xmlns:svg="http://www.w3.org/2000/svg"
   xmlns="http://www.w3.org/2000/svg"
   xmlns:sodipodi="http://sodipodi.sourceforge.net/DTD/sodipodi-0.dtd"
   xmlns:inkscape="http://www.inkscape.org/namespaces/inkscape"
   width="2737.334"
   height="2737.334"
   id="svg2"
   version="1.1"
   inkscape:version="0.48.4 r9939"
   sodipodi:docname="icon_line_bukang.svg">
  <defs
     id="defs4" />
  <sodipodi:namedview
     id="base"
     pagecolor="#ffffff"
     bordercolor="#666666"
     borderopacity="1.0"
     inkscape:pageopacity="0.0"
     inkscape:pageshadow="2"
     inkscape:zoom="0.10406945"
     inkscape:cx="177.0445"
     inkscape:cy="1454.1662"
     inkscape:document-units="px"
     inkscape:current-layer="layer2"
     showgrid="false"
     inkscape:window-width="1366"
     inkscape:window-height="724"
     inkscape:window-x="0"
     inkscape:window-y="24"
     inkscape:window-maximized="1"
     inkscape:snap-smooth-nodes="false"
     inkscape:object-nodes="true"
     inkscape:object-paths="true"
     fit-margin-top="50"
     fit-margin-left="50"
     fit-margin-right="50"
     fit-margin-bottom="50"
     showborder="true"
     inkscape:showpageshadow="false"
     borderlayer="false">
    <inkscape:grid
       type="xygrid"
       id="grid2985"
       empspacing="5"
       visible="true"
       enabled="true"
       snapvisiblegridlinesonly="true"
       originx="50px"
       originy="1637.3339px" />
  </sodipodi:namedview>
  <metadata
     id="metadata7">
    <rdf:RDF>
      <cc:Work
         rdf:about="">
        <dc:format>image/svg+xml</dc:format>
        <dc:type
           rdf:resource="http://purl.org/dc/dcmitype/StillImage" />
        <dc:title></dc:title>
      </cc:Work>
    </rdf:RDF>
  </metadata>
  <g
     inkscape:groupmode="layer"
     id="layer2"
     inkscape:label="draft"
     style="opacity:0;display:inline"
     transform="translate(50,47.637817)">
    <rect
       style="opacity:0.5;fill:#808080;fill-opacity:1;stroke:none"
       id="rect3840"
       width="595.52698"
       height="595.52698"
       x="0"
       y="2.3621826" />
    <rect
       y="2.3621826"
       x="680.60229"
       height="595.52698"
       width="595.52698"
       id="rect3844"
       style="opacity:0.5;fill:#808080;fill-opacity:1;stroke:none" />
    <rect
       style="opacity:0.5;fill:#808080;fill-opacity:1;stroke:none"
       id="rect2997"
       width="595.52698"
       height="595.52698"
       x="1361.2046"
       y="2.3621826" />
    <rect
       y="2.3621826"
       x="2041.807"
       height="595.52698"
       width="595.52698"
       id="rect3781"
       style="opacity:0.5;fill:#808080;fill-opacity:1;stroke:none" />
    <rect
       y="682.96448"
       x="0"
       height="595.52698"
       width="595.52698"
       id="rect3795"
       style="opacity:0.5;fill:#808080;fill-opacity:1;stroke:none" />
    <rect
       style="opacity:0.5;fill:#808080;fill-opacity:1;stroke:none"
       id="rect3808"
       width="595.52698"
       height="595.52698"
       x="680.60229"
       y="682.96448" />
    <rect
       y="682.96448"
       x="1361.2046"
       height="595.52698"
       width="595.52698"
       id="rect3830"
       style="opacity:0.5;fill:#808080;fill-opacity:1;stroke:none" />
    <rect
       style="opacity:0.5;fill:#808080;fill-opacity:1;stroke:none"
       id="rect3832"
       width="595.52698"
       height="595.52698"
       x="2041.807"
       y="682.96448" />
    <rect
       style="opacity:0.5;fill:#808080;fill-opacity:1;stroke:none"
       id="rect3834"
       width="595.52698"
       height="595.52698"
       x="0"
       y="1363.5668" />
    <rect
       y="1363.5668"
       x="680.60229"
       height="595.52698"
       width="595.52698"
       id="rect3836"
       style="opacity:0.5;fill:#808080;fill-opacity:1;stroke:none" />
    <rect
       style="opacity:0.5;fill:#808080;fill-opacity:1;stroke:none"
       id="rect3838"
       width="595.52698"
       height="595.52698"
       x="1361.2046"
       y="1363.5668" />
    <rect
       y="1363.5668"
       x="2041.807"
       height="595.52698"
       width="595.52698"
       id="rect3841"
       style="opacity:0.5;fill:#808080;fill-opacity:1;stroke:none" />
    <rect
       y="2044.1692"
       x="0"
       height="595.52698"
       width="595.52698"
       id="rect3843"
       style="opacity:0.5;fill:#808080;fill-opacity:1;stroke:none" />
    <rect
       style="opacity:0.5;fill:#808080;fill-opacity:1;stroke:none"
       id="rect3845"
       width="595.52698"
       height="595.52698"
       x="680.60229"
       y="2044.1692" />
    <rect
       y="2044.1692"
       x="1361.2046"
       height="595.52698"
       width="595.52698"
       id="rect3847"
       style="opacity:0.5;fill:#808080;fill-opacity:1;stroke:none" />
    <rect
       style="opacity:0.5;fill:#808080;fill-opacity:1;stroke:none"
       id="rect3849"
       width="595.52698"
       height="595.52698"
       x="2041.807"
       y="2044.1692" />
  </g>
  <g
     inkscape:label="Layer 1"
     inkscape:groupmode="layer"
     id="layer1"
     style="display:inline"
     transform="translate(50,47.637817)"
     sodipodi:insensitive="true">
    <g
       id="g3775"
       transform="matrix(6.4364078,0,0,6.4364078,-223.68111,-52.989675)">
      <path
         transform="translate(2.5,2.5)"
         d="m 332.5,52.362183 a 42.5,42.5 0 1 1 -85,0 42.5,42.5 0 1 1 85,0 z"
         sodipodi:ry="42.5"
         sodipodi:rx="42.5"
         sodipodi:cy="52.362183"
         sodipodi:cx="290"
         id="path2999"
         style="color:#000000;fill:none;stroke:#000000;stroke-width:4.40594053;stroke-linecap:round;stroke-linejoin:miter;stroke-miterlimit:4;stroke-opacity:1;stroke-dasharray:none;stroke-dashoffset:0;marker:none;visibility:visible;display:inline;overflow:visible;enable-background:accumulate"
         sodipodi:type="arc" />
      <path
         sodipodi:type="arc"
         style="color:#000000;fill:none;stroke:#000000;stroke-width:137.59999084;stroke-linecap:round;stroke-linejoin:miter;stroke-miterlimit:4;stroke-opacity:1;stroke-dasharray:none;stroke-dashoffset:0;marker:none;visibility:visible;display:inline;overflow:visible;enable-background:accumulate"
         id="path3001"
         sodipodi:cx="290"
         sodipodi:cy="52.362183"
         sodipodi:rx="42.5"
         sodipodi:ry="42.5"
         d="m 332.5,52.362183 a 42.5,42.5 0 1 1 -85,0 42.5,42.5 0 1 1 85,0 z"
         transform="matrix(0.02906977,0,0,0.02906977,284.06977,53.340026)" />
      <path
         inkscape:connector-curvature="0"
         id="path3771"
         d="M 292.91898,55.34162 275,37.422636"
         style="fill:none;stroke:#000000;stroke-width:3;stroke-linecap:round;stroke-linejoin:miter;stroke-miterlimit:4;stroke-opacity:1;stroke-dasharray:none" />
      <path
         inkscape:connector-curvature="0"
         id="path3773"
         d="m 292.5,54.362183 0,38"
         style="fill:none;stroke:#000000;stroke-width:3;stroke-linecap:round;stroke-linejoin:miter;stroke-miterlimit:4;stroke-opacity:1;stroke-dasharray:none" />
    </g>
    <path
       style="fill:none;stroke:#000000;stroke-width:28.35843277;stroke-linecap:round;stroke-linejoin:round;stroke-miterlimit:4;stroke-opacity:1;stroke-dasharray:none"
       d="m 2098.5237,144.15433 56.7169,56.71686 113.4337,-141.792146"
       id="path3783"
       inkscape:connector-curvature="0" />
    <path
       inkscape:connector-curvature="0"
       id="path3785"
       d="m 2098.5237,314.30491 56.7169,56.71687 113.4337,-141.79215"
       style="fill:none;stroke:#000000;stroke-width:28.35843277;stroke-linecap:round;stroke-linejoin:round;stroke-miterlimit:4;stroke-opacity:1;stroke-dasharray:none" />
    <path
       style="fill:none;stroke:#000000;stroke-width:28.35843277;stroke-linecap:round;stroke-linejoin:round;stroke-miterlimit:4;stroke-opacity:1;stroke-dasharray:none"
       d="m 2098.5237,484.45548 56.7169,56.71686 113.4337,-141.79212"
       id="path3787"
       inkscape:connector-curvature="0" />
    <path
       style="fill:none;stroke:#000000;stroke-width:28.35843277;stroke-linecap:round;stroke-linejoin:miter;stroke-miterlimit:4;stroke-opacity:1;stroke-dasharray:none"
       d="m 2325.3912,144.15433 255.226,0"
       id="path3789"
       inkscape:connector-curvature="0" />
    <path
       style="fill:none;stroke:#000000;stroke-width:28.35843277;stroke-linecap:round;stroke-linejoin:miter;stroke-miterlimit:4;stroke-opacity:1;stroke-dasharray:none"
       d="m 2325.3912,314.30491 198.5091,0"
       id="path3791"
       inkscape:connector-curvature="0" />
    <path
       style="fill:none;stroke:#000000;stroke-width:28.35843277;stroke-linecap:round;stroke-linejoin:miter;stroke-miterlimit:4;stroke-opacity:1;stroke-dasharray:none"
       d="m 2325.3912,484.45548 255.226,0"
       id="path3793"
       inkscape:connector-curvature="0" />
    <path
       style="fill:none;stroke:#000000;stroke-width:31.02190399;stroke-linecap:round;stroke-linejoin:round;stroke-miterlimit:4;stroke-opacity:1;stroke-dasharray:none"
       d="m 920.78143,1108.3409 57.5844,99.6579 57.58437,-99.6579 175.0799,0 0,-332.516 -465.32858,0 0,332.516"
       id="path3817"
       inkscape:connector-curvature="0" />
    <g
       id="g3825"
       transform="matrix(5.6716859,0,0,5.6716859,-14.179214,0.30799664)">
      <rect
         y="162.36218"
         x="150"
         height="10"
         width="10"
         id="rect3819"
         style="fill:#000000;fill-opacity:1;stroke:none" />
      <rect
         style="fill:#000000;fill-opacity:1;stroke:none"
         id="rect3821"
         width="10"
         height="10"
         x="170"
         y="162.36218" />
      <rect
         y="162.36218"
         x="190"
         height="10"
         width="10"
         id="rect3823"
         style="fill:#000000;fill-opacity:1;stroke:none" />
    </g>
    <g
       style="display:inline"
       id="g3863"
       transform="matrix(5.6716859,0,0,5.6716859,1.7724019,-11.03536)">
      <path
         inkscape:connector-curvature="0"
         id="path3857"
         d="m 301.5625,202.98718 14.0625,0 0,9.375 -46.875,0 0,-9.375 14.0625,0 0,-9.375 -14.0625,-9.375 0,-46.875 46.875,0 0,46.875 -14.0625,9.375"
         style="fill:none;stroke:#000000;stroke-width:5;stroke-linecap:round;stroke-linejoin:round;stroke-miterlimit:4;stroke-opacity:1;stroke-dasharray:none" />
      <path
         inkscape:connector-curvature="0"
         id="path3859"
         d="m 259.375,151.42468 -9.375,0 0,23.4375"
         style="fill:none;stroke:#000000;stroke-width:5;stroke-linecap:round;stroke-linejoin:round;stroke-miterlimit:4;stroke-opacity:1;stroke-dasharray:none" />
      <path
         inkscape:connector-curvature="0"
         id="path3861"
         d="m 325,151.42468 9.375,0 0,23.4375"
         style="fill:none;stroke:#000000;stroke-width:5;stroke-linecap:round;stroke-linejoin:round;stroke-miterlimit:4;stroke-opacity:1;stroke-dasharray:none" />
    </g>
  </g>
  <g
     id="g3776"
     transform="matrix(4.0104876,4.0104876,-4.0104876,4.0104876,589.97769,-118.46793)"
     style="stroke-width:3;stroke-miterlimit:4;stroke-dasharray:none">
    <path
       inkscape:connector-curvature="0"
       id="path3002"
       d="m 45,72.362183 0,-35 -25,0 L 20,142.36218 27.609375,157.37 30,152.36218 l -5,0"
       style="fill:none;stroke:#000000;stroke-width:4;stroke-linecap:round;stroke-linejoin:round;stroke-miterlimit:4;stroke-opacity:1;stroke-dasharray:none" />
    <path
       inkscape:connector-curvature="0"
       id="path3004"
       d="m 35,42.362183 0,99.999997 -10,0"
       style="fill:none;stroke:#000000;stroke-width:4;stroke-linecap:round;stroke-linejoin:round;stroke-miterlimit:4;stroke-opacity:1;stroke-dasharray:none" />
    <path
       inkscape:connector-curvature="0"
       id="path3006"
       d="m 25,32.362183 0,-10 5,0 0,10"
       style="fill:none;stroke:#000000;stroke-width:4;stroke-linecap:round;stroke-linejoin:round;stroke-miterlimit:4;stroke-opacity:1;stroke-dasharray:none" />
  </g>
  <g
     id="g3872"
     transform="matrix(5.6716859,0,0,5.6716859,50,36.602444)">
    <path
       sodipodi:nodetypes="csccsc"
       inkscape:connector-curvature="0"
       id="path3826"
       d="M 186.93585,78.78158 C 197.85411,62.81747 207.5,53.760573 207.5,39.862184 207.5,19.849367 191.82997,4.8621838 172.5,4.8621838 l 0,0 c -19.32997,0 -35,14.9871832 -35,35.0000002 0,20.012817 20,29.987183 35,64.999996"
       style="color:#000000;fill:none;stroke:#000000;stroke-width:5;stroke-linecap:round;stroke-linejoin:round;stroke-miterlimit:4;stroke-opacity:1;stroke-dasharray:none;stroke-dashoffset:0;marker:none;visibility:visible;display:inline;overflow:visible;enable-background:accumulate" />
    <path
       transform="translate(12.5,-7.5128162)"
       d="m 170,47.362183 c 0,5.522847 -4.47715,10 -10,10 -5.52285,0 -10,-4.477153 -10,-10 0,-5.522848 4.47715,-10 10,-10 5.52285,0 10,4.477152 10,10 z"
       sodipodi:ry="10"
       sodipodi:rx="10"
       sodipodi:cy="47.362183"
       sodipodi:cx="160"
       id="path3831"
       style="color:#000000;fill:none;stroke:#000000;stroke-width:5;stroke-linecap:round;stroke-linejoin:round;stroke-miterlimit:4;stroke-opacity:1;stroke-dasharray:none;stroke-dashoffset:0;marker:none;visibility:visible;display:inline;overflow:visible;enable-background:accumulate"
       sodipodi:type="arc" />
  </g>
  <path
     sodipodi:type="inkscape:offset"
     inkscape:radius="0.32997334"
     inkscape:original="M 288.15625 12.375 C 287.91068 12.375 287.737 12.450499 287.59375 12.59375 L 285.46875 14.65625 C 285.20271 14.84043 285.0625 15.193033 285.0625 15.5 C 285.0625 15.929754 285.3515 16.375 285.78125 16.375 C 285.90404 16.375 286.10675 16.299501 286.25 16.15625 L 286.96875 15.28125 L 286.96875 26.65625 C 286.96875 27.126933 287.47871 27.375 288.03125 27.375 C 288.56333 27.375 289.125 27.126933 289.125 26.65625 L 289.125 13.09375 C 289.125 12.643532 288.60647 12.375 288.15625 12.375 z M 295.46875 12.40625 C 293.23812 12.40625 291.28125 13.841553 291.28125 16.03125 C 291.28125 16.952151 291.677 17.21875 292.25 17.21875 C 292.96626 17.21875 293.40625 16.815539 293.40625 16.40625 C 293.40625 15.014667 294.32274 14.375 295.46875 14.375 C 297.02405 14.375 297.6875 15.528491 297.6875 16.53125 C 297.6875 19.682777 291 21.341007 291 24.65625 L 291 26.65625 C 291 27.086004 291.52821 27.375 291.9375 27.375 L 299.21875 27.375 C 299.58711 27.375 299.9375 26.886612 299.9375 26.375 C 299.9375 25.863388 299.58711 25.4375 299.21875 25.4375 L 293.21875 25.4375 L 293.21875 24.65625 C 293.21875 22.302837 299.84375 20.868609 299.84375 16.46875 C 299.84375 14.013015 297.84263 12.40625 295.46875 12.40625 z "
     style="font-size:20.46448135px;font-style:normal;font-variant:normal;font-weight:300;font-stretch:normal;text-align:start;line-height:125%;letter-spacing:0px;word-spacing:0px;writing-mode:lr-tb;text-anchor:start;fill:#000000;fill-opacity:1;stroke:none;font-family:Roboto;-inkscape-font-specification:Roboto Light"
     id="path3876"
     d="m 288.15625,12.03125 c -0.30389,0 -0.55418,0.157555 -0.75,0.34375 l -0.0313,-0.03125 -2.09375,2.03125 -0.0313,0.03125 c -0.35605,0.26783 -0.53125,0.700205 -0.53125,1.09375 0,0.288844 0.10687,0.584052 0.28125,0.8125 0.17438,0.228448 0.45242,0.40625 0.78125,0.40625 0.25805,0 0.47518,-0.131431 0.6875,-0.34375 a 0.33000634,0.33000634 0 0 0 0.0313,0 l 0.125,-0.15625 0,10.4375 c 0,0.354511 0.23336,0.648557 0.5,0.8125 0.26664,0.163943 0.5806,0.25 0.90625,0.25 0.31732,0 0.63246,-0.0901 0.90625,-0.25 0.27379,-0.159902 0.53125,-0.445905 0.53125,-0.8125 l 0,-13.5625 c 0,-0.351789 -0.21877,-0.646556 -0.46875,-0.8125 -0.24998,-0.165944 -0.55304,-0.25 -0.84375,-0.25 z m 7.3125,0.03125 c -1.18609,0 -2.29064,0.406602 -3.125,1.09375 -0.83436,0.687148 -1.40625,1.681856 -1.40625,2.875 0,0.507718 0.12532,0.89018 0.375,1.15625 0.24968,0.26607 0.59982,0.375 0.9375,0.375 0.8401,0 1.5,-0.510478 1.5,-1.15625 0,-0.623352 0.17011,-1.013493 0.46875,-1.28125 0.29864,-0.267757 0.73839,-0.40625 1.25,-0.40625 0.69607,0 1.13751,0.218011 1.4375,0.5625 0.29999,0.344489 0.4375,0.821393 0.4375,1.25 0,0.671182 -0.34115,1.287553 -0.9375,1.90625 -0.59635,0.618697 -1.41335,1.23178 -2.25,1.84375 -0.83665,0.61197 -1.68575,1.233372 -2.34375,1.9375 -0.658,0.704128 -1.15625,1.497752 -1.15625,2.4375 l 0,2 c 0,0.350067 0.22582,0.614221 0.46875,0.78125 0.24293,0.167029 0.53019,0.28125 0.8125,0.28125 l 7.28125,0 c 0.33001,0 0.5745,-0.224434 0.75,-0.46875 0.1755,-0.244316 0.3125,-0.543864 0.3125,-0.875 0,-0.331136 -0.13141,-0.644074 -0.3125,-0.875 -0.18109,-0.230926 -0.43865,-0.40625 -0.75,-0.40625 l -5.65625,0 0,-0.4375 c 0,-0.433537 0.31214,-0.8953 0.90625,-1.40625 0.59411,-0.51095 1.41287,-1.048356 2.25,-1.65625 1.67425,-1.215787 3.46875,-2.759454 3.46875,-5.125 0,-2.634993 -2.19597,-4.40625 -4.71875,-4.40625 z"
     transform="matrix(5.6716859,0,0,5.6716859,50,36.602444)" />
  <path
     style="fill:none;stroke:#000000;stroke-width:22.68674278;stroke-linecap:round;stroke-linejoin:round;stroke-opacity:1"
     d="m 220.15059,872.39446 85.07528,-85.07528 0,141.79213 -141.79216,0 0,340.30119 283.58431,0"
     id="path3025"
     inkscape:connector-curvature="0" />
  <rect
     style="fill:#000000;fill-opacity:1;stroke:none"
     id="rect3796"
     width="56.716877"
     height="56.71674"
     x="220.15057"
     y="957.46979" />
  <rect
     y="1042.5452"
     x="220.15057"
     height="56.71674"
     width="56.716877"
     id="rect3798"
     style="fill:#000000;fill-opacity:1;stroke:none" />
  <rect
     style="fill:#000000;fill-opacity:1;stroke:none"
     id="rect3800"
     width="56.716877"
     height="56.71674"
     x="220.15057"
     y="1127.6205" />
  <path
     style="fill:none;stroke:#000000;stroke-width:17.01505852;stroke-linecap:round;stroke-linejoin:miter;stroke-miterlimit:4;stroke-opacity:1;stroke-dasharray:none"
     d="m 305.22587,985.82819 170.15057,0"
     id="path3802"
     inkscape:connector-curvature="0" />
  <path
     style="fill:none;stroke:#000000;stroke-width:17.01505852;stroke-linecap:round;stroke-linejoin:miter;stroke-miterlimit:4;stroke-opacity:1;stroke-dasharray:none"
     d="m 305.22587,1070.9035 170.15057,0"
     id="path3804"
     inkscape:connector-curvature="0" />
  <path
     style="fill:none;stroke:#000000;stroke-width:17.01505852;stroke-linecap:round;stroke-linejoin:miter;stroke-miterlimit:4;stroke-opacity:1;stroke-dasharray:none"
     d="m 305.22587,1155.9788 170.15057,0"
     id="path3806"
     inkscape:connector-curvature="0" />
  <path
     style="fill:none;stroke:#000000;stroke-width:28.35843277;stroke-linecap:round;stroke-linejoin:round;stroke-miterlimit:4;stroke-opacity:1;stroke-dasharray:none"
     d="m 2403.7496,820.83367 0,193.35293 -77.341,0"
     id="path3878"
     inkscape:connector-curvature="0"
     sodipodi:nodetypes="ccc" />
  <path
     style="fill:none;stroke:#000000;stroke-width:28.35843277;stroke-linecap:round;stroke-linejoin:round;stroke-miterlimit:4;stroke-opacity:1;stroke-dasharray:none"
     d="m 2205.2406,1070.9035 c 141.7922,34.0301 255.2259,11.3433 363.5037,-18.0463 0,38.6706 -10.3124,188.1968 -164.9947,188.1968"
     id="path3880"
     inkscape:connector-curvature="0"
     sodipodi:nodetypes="ccc" />
  <path
     style="fill:none;stroke:#000000;stroke-width:28.35843277;stroke-linecap:round;stroke-linejoin:round;stroke-miterlimit:4;stroke-opacity:1;stroke-dasharray:none"
     d="m 2290.3161,1155.9788 c 113.4335,28.3584 226.8673,0 262.9596,-33.5145"
     id="path3884"
     inkscape:connector-curvature="0"
     sodipodi:nodetypes="cc" />
  <path
     style="fill:none;stroke:#000000;stroke-width:22.68674278;stroke-linecap:round;stroke-linejoin:round;stroke-miterlimit:4;stroke-opacity:1;stroke-dasharray:none"
     d="m 220.15059,1467.9214 0,85.0753"
     id="path3904"
     inkscape:connector-curvature="0" />
  <path
     style="fill:none;stroke:#000000;stroke-width:22.68674278;stroke-linecap:round;stroke-linejoin:round;stroke-miterlimit:4;stroke-opacity:1;stroke-dasharray:none"
     d="m 475.37644,1467.9214 0,85.0753"
     id="path3906"
     inkscape:connector-curvature="0" />
  <path
     style="fill:none;stroke:#000000;stroke-width:22.68674278;stroke-linecap:round;stroke-linejoin:round;stroke-miterlimit:4;stroke-opacity:1;stroke-dasharray:none"
     d="m 163.43371,1524.6384 368.65959,0"
     id="path3908"
     inkscape:connector-curvature="0"
     sodipodi:nodetypes="cc" />
  <path
     style="fill:none;stroke:#000000;stroke-width:22.68674278;stroke-linecap:round;stroke-linejoin:round;stroke-miterlimit:4;stroke-opacity:1;stroke-dasharray:none"
     d="m 163.43371,1609.7136 368.65959,0"
     id="path3910"
     inkscape:connector-curvature="0"
     sodipodi:nodetypes="cc" />
  <text
     xml:space="preserve"
     style="font-size:129.66874695px;font-style:normal;font-variant:normal;font-weight:300;font-stretch:normal;text-align:start;line-height:125%;letter-spacing:0px;word-spacing:0px;writing-mode:lr-tb;text-anchor:start;fill:#000000;fill-opacity:1;stroke:none;font-family:Roboto;-inkscape-font-specification:Roboto Light"
     x="196.0195"
     y="1762.8492"
     id="text3912"
     sodipodi:linespacing="125%"><tspan
       sodipodi:role="line"
       id="tspan3914"
       x="196.0195"
       y="1762.8492"
       style="font-style:normal;font-variant:normal;font-weight:bold;font-stretch:condensed;font-family:ITC Avant Garde Gothic Std;-inkscape-font-specification:ITC Avant Garde Gothic Std Bold Condensed">09</tspan></text>
  <rect
     style="fill:#000000;fill-opacity:1;stroke:none"
     id="rect3916"
     width="28.358433"
     height="28.358433"
     x="361.94272"
     y="1666.4304" />
  <rect
     y="1666.4304"
     x="418.65958"
     height="28.358433"
     width="28.358433"
     id="rect3918"
     style="fill:#000000;fill-opacity:1;stroke:none" />
  <rect
     style="fill:#000000;fill-opacity:1;stroke:none"
     id="rect3920"
     width="28.358433"
     height="28.358433"
     x="475.37643"
     y="1666.4304" />
  <rect
     y="1723.1475"
     x="475.37643"
     height="28.358433"
     width="28.358433"
     id="rect3922"
     style="fill:#000000;fill-opacity:1;stroke:none" />
  <rect
     style="fill:#000000;fill-opacity:1;stroke:none"
     id="rect3924"
     width="28.358433"
     height="28.358433"
     x="418.65958"
     y="1723.1475" />
  <rect
     y="1723.1475"
     x="361.94272"
     height="28.358433"
     width="28.358433"
     id="rect3926"
     style="fill:#000000;fill-opacity:1;stroke:none" />
  <rect
     style="fill:#000000;fill-opacity:1;stroke:none"
     id="rect3928"
     width="28.358433"
     height="28.358433"
     x="361.94272"
     y="1779.8641" />
  <rect
     y="1779.8641"
     x="418.65958"
     height="28.358433"
     width="28.358433"
     id="rect3930"
     style="fill:#000000;fill-opacity:1;stroke:none" />
  <rect
     style="fill:#000000;fill-opacity:1;stroke:none"
     id="rect3932"
     width="28.358433"
     height="28.358433"
     x="475.37643"
     y="1779.8641" />
  <rect
     y="1836.5809"
     x="475.37643"
     height="28.358433"
     width="28.358433"
     id="rect3934"
     style="fill:#000000;fill-opacity:1;stroke:none" />
  <rect
     style="fill:#000000;fill-opacity:1;stroke:none"
     id="rect3936"
     width="28.358433"
     height="28.358433"
     x="418.65958"
     y="1836.5809" />
  <rect
     y="1836.5809"
     x="361.94272"
     height="28.358433"
     width="28.358433"
     id="rect3938"
     style="fill:#000000;fill-opacity:1;stroke:none" />
  <rect
     style="fill:#000000;fill-opacity:1;stroke:none"
     id="rect3940"
     width="28.358433"
     height="28.358433"
     x="305.22586"
     y="1779.8641" />
  <rect
     y="1836.5809"
     x="305.22586"
     height="28.358433"
     width="28.358433"
     id="rect3942"
     style="fill:#000000;fill-opacity:1;stroke:none" />
  <rect
     style="fill:#000000;fill-opacity:1;stroke:none"
     id="rect3944"
     width="28.358433"
     height="28.358433"
     x="248.50902"
     y="1779.8641" />
  <rect
     y="1779.8641"
     x="191.79214"
     height="28.358433"
     width="28.358433"
     id="rect3946"
     style="fill:#000000;fill-opacity:1;stroke:none" />
  <rect
     style="fill:#000000;fill-opacity:1;stroke:none"
     id="rect3948"
     width="28.358433"
     height="28.358433"
     x="191.79214"
     y="1836.5809" />
  <rect
     y="1836.5809"
     x="248.50902"
     height="28.358433"
     width="28.358433"
     id="rect3950"
     style="fill:#000000;fill-opacity:1;stroke:none" />
  <path
     sodipodi:type="arc"
     style="color:#000000;fill:none;stroke:#000000;stroke-width:5;stroke-linecap:round;stroke-linejoin:round;stroke-miterlimit:4;stroke-opacity:1;stroke-dasharray:none;stroke-dashoffset:0;marker:none;visibility:visible;display:inline;overflow:visible;enable-background:accumulate"
     id="path3952"
     sodipodi:cx="170"
     sodipodi:cy="272.36218"
     sodipodi:rx="20"
     sodipodi:ry="20"
     d="m 190,272.36218 a 20,20 0 1 1 -40,0 20,20 0 1 1 40,0 z"
     transform="matrix(5.6716859,0,0,5.6716859,64.179209,36.602429)" />
  <path
     style="fill:none;stroke:#000000;stroke-width:28.35843277;stroke-linecap:round;stroke-linejoin:round;stroke-miterlimit:4;stroke-opacity:1;stroke-dasharray:none"
     d="m 1099.2619,1950.0148 141.7921,0 -113.4337,-198.5089 -198.509,0 -113.4337,198.5089 141.79215,0"
     id="path3954"
     inkscape:connector-curvature="0"
     sodipodi:nodetypes="cccccc" />
  <path
     sodipodi:type="arc"
     style="color:#000000;fill:#000000;stroke:none;stroke-width:1;marker:none;visibility:visible;display:inline;overflow:visible;enable-background:accumulate"
     id="path3956"
     sodipodi:cx="170"
     sodipodi:cy="312.36218"
     sodipodi:rx="5"
     sodipodi:ry="5"
     d="m 175,312.36218 a 5,5 0 1 1 -10,0"
     transform="matrix(6.2388545,0,0,6.2388545,-32.239447,-188.76891)"
     sodipodi:start="0"
     sodipodi:end="3.1415927"
     sodipodi:open="true" />
  <path
     style="fill:#000000;stroke:none"
     d="m 1028.3658,1808.2226 c -14.1792,0 -38.76214,75.873 -28.3584,113.4337 3.5685,12.8834 28.3584,28.3585 28.3584,28.3585 0,0 24.79,-15.4751 28.3585,-28.3585 10.4037,-37.5607 -14.1793,-113.4337 -28.3585,-113.4337 z"
     id="path3958"
     inkscape:connector-curvature="0"
     sodipodi:nodetypes="sacas" />
  <g
     id="g3985"
     transform="matrix(3.498825,3.498825,-3.498825,3.498825,1694.3965,-340.76696)">
    <path
       inkscape:connector-curvature="0"
       id="path3971"
       d="m 310,317.36218 -30,0 -10,-55 50,0 -7.61668,41.89176"
       style="fill:none;stroke:#000000;stroke-width:5.73119211;stroke-linecap:round;stroke-linejoin:round;stroke-miterlimit:4;stroke-opacity:1;stroke-dasharray:none" />
    <path
       sodipodi:nodetypes="ccccccc"
       inkscape:connector-curvature="0"
       id="path3973"
       d="m 275,322.36218 5,15 30,0 1.88592,-5.65777 13.11408,0.65777 7.04372,-38.74045 -17.21096,-2.83972"
       style="fill:none;stroke:#000000;stroke-width:5.73119211;stroke-linecap:round;stroke-linejoin:round;stroke-miterlimit:4;stroke-opacity:1;stroke-dasharray:none" />
    <path
       inkscape:connector-curvature="0"
       id="path3979"
       d="m 271.63205,252.20448 -5,-10"
       style="fill:none;stroke:#000000;stroke-width:5.73119211;stroke-linecap:butt;stroke-linejoin:miter;stroke-miterlimit:4;stroke-opacity:1;stroke-dasharray:none"
       sodipodi:nodetypes="cc" />
    <path
       inkscape:connector-curvature="0"
       id="path3981"
       d="m 318.36795,252.20448 5,-10"
       style="fill:none;stroke:#000000;stroke-width:5.73119211;stroke-linecap:butt;stroke-linejoin:miter;stroke-miterlimit:4;stroke-opacity:1;stroke-dasharray:none"
       sodipodi:nodetypes="cc" />
    <path
       inkscape:connector-curvature="0"
       id="path3983"
       d="m 295,241.04679 0,-11"
       style="fill:none;stroke:#000000;stroke-width:5.73119211;stroke-linecap:butt;stroke-linejoin:miter;stroke-miterlimit:4;stroke-opacity:1;stroke-dasharray:none"
       sodipodi:nodetypes="cc" />
  </g>
  <g
     id="g4010"
     transform="matrix(5.6716859,0,0,5.6716859,55.698954,36.602444)">
    <g
       transform="matrix(0.8660254,0.5,-0.5,0.8660254,206.11068,-165.83089)"
       id="g4002">
      <path
         style="fill:none;stroke:#000000;stroke-width:3;stroke-linecap:round;stroke-linejoin:round;stroke-miterlimit:4;stroke-opacity:1;stroke-dasharray:none"
         d="m 410,247.36218 0,75"
         id="path3994"
         inkscape:connector-curvature="0" />
      <path
         style="fill:none;stroke:#000000;stroke-width:3;stroke-linecap:round;stroke-linejoin:round;stroke-miterlimit:4;stroke-opacity:1;stroke-dasharray:none"
         d="m 410,312.36218 15,-15 -5,-10 5,0 0,-25 -10,0 6.18024,-3.81976 L 410,247.36218 l -15,15 0,10 5,5 -5,5 0,15 z"
         id="path3996"
         inkscape:connector-curvature="0"
         sodipodi:nodetypes="cccccccccccccc" />
      <path
         style="fill:none;stroke:#000000;stroke-width:3;stroke-linecap:round;stroke-linejoin:round;stroke-miterlimit:4;stroke-opacity:1;stroke-dasharray:none"
         d="m 410,292.36218 c -5,-5 -5,-5 -5,-5"
         id="path3998"
         inkscape:connector-curvature="0" />
      <path
         style="fill:none;stroke:#000000;stroke-width:3;stroke-linecap:round;stroke-linejoin:round;stroke-miterlimit:4;stroke-opacity:1;stroke-dasharray:none"
         d="m 410,272.36218 5,-5"
         id="path4000"
         inkscape:connector-curvature="0" />
    </g>
    <path
       sodipodi:nodetypes="ccccccccc"
       inkscape:connector-curvature="0"
       id="path4008"
       d="m 390,317.36218 20,0 0,5 10,5 0,10 -40,0 0,-10 10,-5 z"
       style="fill:#000000;stroke:#000000;stroke-width:3;stroke-linecap:round;stroke-linejoin:round;stroke-miterlimit:4;stroke-opacity:1;stroke-dasharray:none" />
  </g>
  <path
     style="color:#000000;fill:none;stroke:#000000;stroke-width:28.35843277;stroke-linecap:round;stroke-linejoin:round;stroke-miterlimit:4;stroke-opacity:1;stroke-dasharray:none;stroke-dashoffset:0;marker:none;visibility:visible;display:inline;overflow:visible;enable-background:accumulate"
     d="M 406.48113,2608.7802 C 527.5072,2576.3514 599.32949,2451.9516 566.90062,2330.9256 534.47179,2209.8995 410.07198,2138.0772 289.0459,2170.506 c -121.02609,32.4289 -192.848349,156.8287 -160.4195,277.8547 1.18508,4.4228 2.61975,8.7563 4.04583,13.045 8.16447,-19.6127 24.9616,-35.4968 47.0686,-41.4204 37.82065,-10.1341 76.69559,12.3102 86.8296,50.1311 10.134,37.8206 -12.31044,76.6954 -50.13109,86.8296 -6.40552,1.7163 -12.85655,2.4555 -19.17781,2.3862 55.10834,48.8167 132.78464,69.9287 209.2196,49.448 z"
     id="path4018"
     inkscape:connector-curvature="0" />
  <path
     d="m 45,397.36218 a 5,5 0 1 1 -10,0 5,5 0 1 1 10,0 z"
     sodipodi:ry="5"
     sodipodi:rx="5"
     sodipodi:cy="397.36218"
     sodipodi:cx="40"
     id="path4037"
     style="color:#000000;fill:none;stroke:#000000;stroke-width:3.33333325;stroke-linecap:butt;stroke-linejoin:miter;stroke-miterlimit:4;stroke-opacity:1;stroke-dasharray:none;stroke-dashoffset:0;marker:none;visibility:visible;display:inline;overflow:visible;enable-background:accumulate"
     sodipodi:type="arc"
     transform="matrix(-8.2176433,2.2019109,-2.2019109,-8.2176433,1574.4466,5707.648)" />
  <path
     sodipodi:type="arc"
     style="color:#000000;fill:#000000;stroke:none;stroke-width:1;marker:none;visibility:visible;display:inline;overflow:visible;enable-background:accumulate"
     id="path4039"
     sodipodi:cx="45"
     sodipodi:cy="392.36218"
     sodipodi:rx="5"
     sodipodi:ry="5"
     d="m 50,392.36218 a 5,5 0 1 1 -10,0 5,5 0 1 1 10,0 z"
     transform="matrix(5.6716859,0,0,5.6716859,72.66117,6.121209)" />
  <path
     d="m 50,392.36218 a 5,5 0 1 1 -10,0 5,5 0 1 1 10,0 z"
     sodipodi:ry="5"
     sodipodi:rx="5"
     sodipodi:cy="392.36218"
     sodipodi:cx="45"
     id="path4041"
     style="color:#000000;fill:#000000;stroke:none;stroke-width:1;marker:none;visibility:visible;display:inline;overflow:visible;enable-background:accumulate"
     sodipodi:type="arc"
     transform="matrix(5.6716859,0,0,5.6716859,115.86875,125.72224)" />
  <path
     transform="matrix(5.6716859,0,0,5.6716859,223.12973,204.76715)"
     sodipodi:type="arc"
     style="color:#000000;fill:#000000;stroke:none;stroke-width:1;marker:none;visibility:visible;display:inline;overflow:visible;enable-background:accumulate"
     id="path4043"
     sodipodi:cx="45"
     sodipodi:cy="392.36218"
     sodipodi:rx="5"
     sodipodi:ry="5"
     d="m 50,392.36218 a 5,5 0 1 1 -10,0 5,5 0 1 1 10,0 z" />
  <path
     d="m 50,392.36218 a 5,5 0 1 1 -10,0 5,5 0 1 1 10,0 z"
     sodipodi:ry="5"
     sodipodi:rx="5"
     sodipodi:cy="392.36218"
     sodipodi:cx="45"
     id="path4045"
     style="color:#000000;fill:#000000;stroke:none;stroke-width:1;marker:none;visibility:visible;display:inline;overflow:visible;enable-background:accumulate"
     sodipodi:type="arc"
     transform="matrix(5.6716859,0,0,5.6716859,220.87256,57.623121)" />
  <path
     transform="matrix(5.6716859,0,0,5.6716859,-34.404521,122.6996)"
     sodipodi:type="arc"
     style="color:#000000;fill:#000000;stroke:none;stroke-width:1;marker:none;visibility:visible;display:inline;overflow:visible;enable-background:accumulate"
     id="path4049"
     sodipodi:cx="45"
     sodipodi:cy="392.36218"
     sodipodi:rx="5"
     sodipodi:ry="5"
     d="m 50,392.36218 a 5,5 0 1 1 -10,0 5,5 0 1 1 10,0 z" />
  <path
     sodipodi:type="arc"
     style="color:#000000;fill:none;stroke:#000000;stroke-width:5;stroke-linecap:round;stroke-linejoin:round;stroke-miterlimit:4;stroke-opacity:1;stroke-dasharray:none;stroke-dashoffset:0;marker:none;visibility:visible;display:inline;overflow:visible;enable-background:accumulate"
     id="path4051"
     sodipodi:cx="175"
     sodipodi:cy="412.36218"
     sodipodi:rx="40"
     sodipodi:ry="40"
     d="m 215,412.36218 a 40,40 0 1 1 -80,0 40,40 0 1 1 80,0 z"
     transform="matrix(5.6716859,0,0,5.6716859,35.820785,50.781655)" />
  <path
     transform="matrix(1.7724025,0,0,1.7724025,718.19537,1658.6987)"
     d="m 215,412.36218 a 40,40 0 1 1 -80,0 40,40 0 1 1 80,0 z"
     sodipodi:ry="40"
     sodipodi:rx="40"
     sodipodi:cy="412.36218"
     sodipodi:cx="175"
     id="path4053"
     style="color:#000000;fill:none;stroke:#000000;stroke-width:15.99999428;stroke-linecap:round;stroke-linejoin:round;stroke-miterlimit:4;stroke-opacity:1;stroke-dasharray:none;stroke-dashoffset:0;marker:none;visibility:visible;display:inline;overflow:visible;enable-background:accumulate"
     sodipodi:type="arc" />
  <path
     style="fill:none;stroke:#000000;stroke-width:28.35843277;stroke-linecap:butt;stroke-linejoin:miter;stroke-miterlimit:4;stroke-opacity:1;stroke-dasharray:none"
     d="m 1099.2619,2403.7496 0,-226.8675"
     id="path4073"
     inkscape:connector-curvature="0" />
  <path
     style="fill:none;stroke:#000000;stroke-width:28.35843277;stroke-linecap:butt;stroke-linejoin:miter;stroke-miterlimit:4;stroke-opacity:1;stroke-dasharray:none"
     d="m 957.46975,2403.7496 0,198.5091"
     id="path4077"
     inkscape:connector-curvature="0" />
  <path
     style="fill:none;stroke:#000000;stroke-width:28.35843277;stroke-linecap:butt;stroke-linejoin:miter;stroke-miterlimit:4;stroke-opacity:1;stroke-dasharray:none"
     d="m 1014.1866,2460.4665 226.8674,0"
     id="path4079"
     inkscape:connector-curvature="0" />
  <path
     style="fill:none;stroke:#000000;stroke-width:28.35843277;stroke-linecap:butt;stroke-linejoin:miter;stroke-miterlimit:4;stroke-opacity:1;stroke-dasharray:none"
     d="m 1042.545,2318.6743 -226.8674,0"
     id="path4081"
     inkscape:connector-curvature="0" />
  <path
     style="fill:none;stroke:#000000;stroke-width:28.35843277;stroke-linecap:butt;stroke-linejoin:miter;stroke-miterlimit:4;stroke-opacity:1;stroke-dasharray:none"
     d="M 1074.834,2337.0631 929.1113,2191.3402"
     id="path4083"
     inkscape:connector-curvature="0" />
  <path
     style="fill:none;stroke:#000000;stroke-width:28.35843277;stroke-linecap:butt;stroke-linejoin:miter;stroke-miterlimit:4;stroke-opacity:1;stroke-dasharray:none"
     d="m 1095.3066,2408.115 130.4513,-130.4513"
     id="path4085"
     inkscape:connector-curvature="0" />
  <path
     style="fill:none;stroke:#000000;stroke-width:28.35843277;stroke-linecap:butt;stroke-linejoin:miter;stroke-miterlimit:4;stroke-opacity:1;stroke-dasharray:none"
     d="m 1011.0077,2459.8986 116.6126,142.3601"
     id="path4087"
     inkscape:connector-curvature="0"
     sodipodi:nodetypes="cc" />
  <path
     style="fill:none;stroke:#000000;stroke-width:28.35843277;stroke-linecap:butt;stroke-linejoin:miter;stroke-miterlimit:4;stroke-opacity:1;stroke-dasharray:none"
     d="m 960.42833,2373.1913 -129.03001,129.03"
     id="path4089"
     inkscape:connector-curvature="0" />
</svg>
