<?xml version="1.0" encoding="UTF-8" standalone="no"?>
<!-- Created with Inkscape (http://www.inkscape.org/) -->

<svg
   xmlns:dc="http://purl.org/dc/elements/1.1/"
   xmlns:cc="http://creativecommons.org/ns#"
   xmlns:rdf="http://www.w3.org/1999/02/22-rdf-syntax-ns#"
   xmlns:svg="http://www.w3.org/2000/svg"
   xmlns="http://www.w3.org/2000/svg"
   xmlns:sodipodi="http://sodipodi.sourceforge.net/DTD/sodipodi-0.dtd"
   xmlns:inkscape="http://www.inkscape.org/namespaces/inkscape"
   height="487.24164"
   width="488.28687"
   id="svg2"
   version="1.1"
   inkscape:version="0.91 r"
   sodipodi:docname="design.svg">
  <defs
     id="defs4" />
  <sodipodi:namedview
     id="base"
     pagecolor="#000000"
     bordercolor="#666666"
     borderopacity="1.0"
     inkscape:pageopacity="0.0"
     inkscape:pageshadow="2"
     inkscape:zoom="0.4162778"
     inkscape:cx="29.322563"
     inkscape:cy="378.24756"
     inkscape:document-units="px"
     inkscape:current-layer="layer1"
     showgrid="false"
     inkscape:window-width="1366"
     inkscape:window-height="713"
     inkscape:window-x="0"
     inkscape:window-y="30"
     inkscape:window-maximized="1"
     inkscape:snap-smooth-nodes="false"
     inkscape:object-nodes="true"
     inkscape:object-paths="true"
     fit-margin-top="20"
     fit-margin-left="20"
     fit-margin-right="20"
     fit-margin-bottom="20"
     showborder="true"
     inkscape:showpageshadow="false"
     borderlayer="false">
    <inkscape:grid
       type="xygrid"
       id="grid2985"
       empspacing="5"
       visible="true"
       enabled="true"
       snapvisiblegridlinesonly="true"
       originx="55.008755"
       originy="-616.38982" />
  </sodipodi:namedview>
  <metadata
     id="metadata7">
    <rdf:RDF>
      <cc:Work
         rdf:about="">
        <dc:format>image/svg+xml</dc:format>
        <dc:type
           rdf:resource="http://purl.org/dc/dcmitype/StillImage" />
        <dc:title></dc:title>
      </cc:Work>
    </rdf:RDF>
  </metadata>
  <g
     inkscape:label="Layer 1"
     inkscape:groupmode="layer"
     id="layer1"
     style="display:inline"
     transform="translate(55.008755,51.269197)">
    <circle
       r="47.405773"
       cy="20.333242"
       cx="251.064"
       style="color:#ffffff;display:inline;overflow:visible;visibility:visible;fill:none;stroke:#ffffff;stroke-width:4.91451788;stroke-linecap:round;stroke-linejoin:miter;stroke-miterlimit:4;stroke-dasharray:none;stroke-dashoffset:0;stroke-opacity:1;marker:none;enable-background:accumulate"
       id="path2999" />
    <circle
       r="1.3780749"
       cy="20.333242"
       cx="251.06403"
       id="path3001"
       style="color:#ffffff;display:inline;overflow:visible;visibility:visible;fill:none;stroke:#ffffff;stroke-width:4.46171951;stroke-linecap:round;stroke-linejoin:miter;stroke-miterlimit:4;stroke-dasharray:none;stroke-dashoffset:0;stroke-opacity:1;marker:none;enable-background:accumulate" />
    <path
       style="fill:none;stroke:#ffffff;stroke-width:3.34628987;stroke-linecap:round;stroke-linejoin:miter;stroke-miterlimit:4;stroke-dasharray:none;stroke-opacity:1"
       d="M 251.53135,20.868021 231.54398,0.88064946"
       id="path3771"
       inkscape:connector-curvature="0" />
    <path
       style="fill:none;stroke:#ffffff;stroke-width:3.34628987;stroke-linecap:round;stroke-linejoin:miter;stroke-miterlimit:4;stroke-dasharray:none;stroke-opacity:1"
       d="m 251.06401,19.775527 0,42.386338"
       id="path3773"
       inkscape:connector-curvature="0" />
    <path
       style="fill:none;stroke:#ffffff;stroke-width:4.91451836;stroke-linecap:round;stroke-linejoin:round;stroke-miterlimit:4;stroke-dasharray:none;stroke-opacity:1"
       d="m 327.23901,-6.6966085 9.82904,9.829036 19.65807,-24.5725895"
       id="path3783"
       inkscape:connector-curvature="0" />
    <path
       inkscape:connector-curvature="0"
       id="path3785"
       d="m 327.23901,22.790499 9.82904,9.829038 19.65807,-24.5725895"
       style="fill:none;stroke:#ffffff;stroke-width:4.91451836;stroke-linecap:round;stroke-linejoin:round;stroke-miterlimit:4;stroke-dasharray:none;stroke-opacity:1" />
    <path
       style="fill:none;stroke:#ffffff;stroke-width:4.91451836;stroke-linecap:round;stroke-linejoin:round;stroke-miterlimit:4;stroke-dasharray:none;stroke-opacity:1"
       d="m 327.23901,52.277605 9.82904,9.829036 19.65807,-24.572584"
       id="path3787"
       inkscape:connector-curvature="0" />
    <path
       style="fill:none;stroke:#ffffff;stroke-width:4.91451836;stroke-linecap:round;stroke-linejoin:miter;stroke-miterlimit:4;stroke-dasharray:none;stroke-opacity:1"
       d="m 366.55517,-6.6966085 44.23068,0"
       id="path3789"
       inkscape:connector-curvature="0" />
    <path
       style="fill:none;stroke:#ffffff;stroke-width:4.91451836;stroke-linecap:round;stroke-linejoin:miter;stroke-miterlimit:4;stroke-dasharray:none;stroke-opacity:1"
       d="m 366.55517,22.790499 34.40164,0"
       id="path3791"
       inkscape:connector-curvature="0" />
    <path
       style="fill:none;stroke:#ffffff;stroke-width:4.91451836;stroke-linecap:round;stroke-linejoin:miter;stroke-miterlimit:4;stroke-dasharray:none;stroke-opacity:1"
       d="m 366.55517,52.277605 44.23068,0"
       id="path3793"
       inkscape:connector-curvature="0" />
    <path
       style="fill:none;stroke:#ffffff;stroke-width:5.37609816;stroke-linecap:round;stroke-linejoin:round;stroke-miterlimit:4;stroke-dasharray:none;stroke-opacity:1"
       d="m 123.13619,160.39699 9.97938,17.27072 9.97938,-17.27072 30.34136,0 0,-57.62505 -80.641475,0 0,57.62505"
       id="path3817"
       inkscape:connector-curvature="0" />
    <rect
       style="fill:#ffffff;fill-opacity:1;stroke:none"
       id="rect3819"
       width="9.8290358"
       height="9.8290358"
       x="108.54298"
       y="127.96119" />
    <rect
       y="127.96119"
       x="128.20105"
       height="9.8290358"
       width="9.8290358"
       id="rect3821"
       style="fill:#ffffff;fill-opacity:1;stroke:none" />
    <rect
       style="fill:#ffffff;fill-opacity:1;stroke:none"
       id="rect3823"
       width="9.8290358"
       height="9.8290358"
       x="147.85913"
       y="127.96119" />
    <path
       style="fill:none;stroke:#ffffff;stroke-width:4.91451788;stroke-linecap:round;stroke-linejoin:round;stroke-miterlimit:4;stroke-dasharray:none;stroke-opacity:1"
       d="m 260.27872,165.92584 13.82209,0 0,9.21471 -46.07361,0 0,-9.21471 13.82208,0 0,-9.21473 -13.82208,-9.21471 0,-46.07362 46.07361,0 0,46.07362 -13.82209,9.21471"
       id="path3857"
       inkscape:connector-curvature="0" />
    <path
       style="fill:none;stroke:#ffffff;stroke-width:4.91451788;stroke-linecap:round;stroke-linejoin:round;stroke-miterlimit:4;stroke-dasharray:none;stroke-opacity:1"
       d="m 218.81247,115.24486 -9.21471,0 0,23.03681"
       id="path3859"
       inkscape:connector-curvature="0" />
    <path
       style="fill:none;stroke:#ffffff;stroke-width:4.91451788;stroke-linecap:round;stroke-linejoin:round;stroke-miterlimit:4;stroke-dasharray:none;stroke-opacity:1"
       d="m 283.31552,115.24486 9.21473,0 0,23.03681"
       id="path3861"
       inkscape:connector-curvature="0" />
  </g>
  <path
     style="fill:none;stroke:#ffffff;stroke-width:3.9316144;stroke-linecap:round;stroke-linejoin:round;stroke-miterlimit:4;stroke-dasharray:none;stroke-opacity:1"
     d="M 93.13443,72.373302 117.46004,48.047676 100.08461,30.672232 27.107743,103.6491 l -5.14205,15.71935 5.14205,-1.819 -3.475088,-3.47509"
     id="path3002"
     inkscape:connector-curvature="0" />
  <path
     style="fill:none;stroke:#ffffff;stroke-width:3.9316144;stroke-linecap:round;stroke-linejoin:round;stroke-miterlimit:4;stroke-dasharray:none;stroke-opacity:1"
     d="M 107.03478,44.572589 37.533011,114.07436 30.582832,107.12419"
     id="path3004"
     inkscape:connector-curvature="0" />
  <path
     style="fill:none;stroke:#ffffff;stroke-width:3.9316144;stroke-linecap:round;stroke-linejoin:round;stroke-miterlimit:4;stroke-dasharray:none;stroke-opacity:1"
     d="m 107.03478,30.672232 6.95017,-6.950178 3.47509,3.475089 -6.95017,6.950178"
     id="path3006"
     inkscape:connector-curvature="0" />
  <path
     style="color:#ffffff;display:inline;overflow:visible;visibility:visible;fill:none;stroke:#ffffff;stroke-width:4.91451788;stroke-linecap:round;stroke-linejoin:round;stroke-miterlimit:4;stroke-dasharray:none;stroke-dashoffset:0;stroke-opacity:1;marker:none;enable-background:accumulate"
     d="m 202.31336,95.112902 c 10.73161,-15.69118 20.21258,-24.59324 20.21258,-38.254017 0,-19.670669 -15.40213,-34.401626 -34.40162,-34.401626 l 0,0 c -18.9995,0 -34.40163,14.730957 -34.40163,34.401626 0,19.670667 19.65808,29.474507 34.40163,63.888725"
     id="path3826"
     inkscape:connector-curvature="0"
     sodipodi:nodetypes="csccsc" />
  <path
     inkscape:connector-curvature="0"
     id="path3831"
     d="m 197.95336,56.846287 a 9.8290358,9.8290358 0 0 1 -9.82904,9.829035 9.8290358,9.8290358 0 0 1 -9.82904,-9.829035 9.8290358,9.8290358 0 0 1 9.82904,-9.829035 9.8290358,9.8290358 0 0 1 9.82904,9.829035 z"
     style="color:#ffffff;display:inline;overflow:visible;visibility:visible;fill:none;stroke:#ffffff;stroke-width:4.91451788;stroke-linecap:round;stroke-linejoin:round;stroke-miterlimit:4;stroke-dasharray:none;stroke-dashoffset:0;stroke-opacity:1;marker:none;enable-background:accumulate" />
  <path
     style="font-style:normal;font-variant:normal;font-weight:300;font-stretch:normal;font-size:20.46448135px;line-height:125%;font-family:Roboto;-inkscape-font-specification:'Roboto Light';text-align:start;letter-spacing:0px;word-spacing:0px;writing-mode:lr-tb;text-anchor:start;fill:#ffffff;fill-opacity:1;stroke:none"
     d="m 301.80326,29.517199 c -0.30784,0 -0.58814,0.1178 -0.78133,0.310996 l 0.002,-0.0038 -2.08867,2.027238 0.0423,-0.03456 c -0.37692,0.260944 -0.53944,0.695687 -0.53944,1.096167 0,0.283906 0.0897,0.560629 0.26108,0.785171 0.17139,0.224542 0.44661,0.399304 0.76981,0.399304 0.25364,0 0.4805,-0.102307 0.68919,-0.310996 a 0.32436441,0.32436441 0 0 0 0.023,-0.02304 l 0.13054,-0.159338 0,10.274414 c 0,0.34845 0.21017,0.641308 0.47225,0.802448 0.26208,0.161141 0.57644,0.228449 0.89652,0.228449 0.31189,0 0.6274,-0.06744 0.89651,-0.224609 0.26911,-0.157169 0.50298,-0.44596 0.50298,-0.806288 l 0,-13.33063 c 0,-0.345774 -0.20927,-0.625903 -0.45498,-0.78901 -0.24572,-0.163107 -0.53591,-0.241886 -0.82165,-0.241886 z m 7.18748,0.03072 c -1.16581,0 -2.26684,0.372774 -3.08693,1.048175 -0.82009,0.675401 -1.35341,1.66654 -1.35341,2.839286 0,0.499037 0.10782,0.88264 0.35323,1.14416 0.24541,0.261521 0.59149,0.347472 0.92339,0.347472 0.82574,0 1.46092,-0.488312 1.46092,-1.123044 0,-0.612694 0.19024,-1.005765 0.48378,-1.268944 0.29353,-0.263178 0.71616,-0.403144 1.21902,-0.403144 0.68417,0 1.12383,0.239241 1.41869,0.577841 0.29486,0.338599 0.43769,0.795831 0.43769,1.21711 0,0.659708 -0.35067,1.263621 -0.93682,1.871741 -0.58616,0.608119 -1.39496,1.197282 -2.21729,1.79879 -0.82235,0.601507 -1.65694,1.214205 -2.30368,1.906295 -0.64675,0.69209 -1.11537,1.485584 -1.11537,2.409266 l 0,1.965807 c 0,0.344082 0.21235,0.615239 0.45114,0.779412 0.23878,0.164174 0.51728,0.251485 0.79477,0.251485 l 7.15676,0 c 0.32437,0 0.58004,-0.197561 0.75254,-0.437699 0.17249,-0.240139 0.27836,-0.544165 0.27836,-0.86964 0,-0.325474 -0.10805,-0.621544 -0.28604,-0.848522 -0.17799,-0.226978 -0.43883,-0.397385 -0.74486,-0.397385 l -5.57298,0 0,-0.443458 c 0,-0.426125 0.32024,-0.876154 0.90419,-1.378369 0.58395,-0.502214 1.39448,-1.030433 2.21729,-1.627934 1.64563,-1.195001 3.39025,-2.716116 3.39025,-5.04122 0,-2.589944 -2.14499,-4.317481 -4.62464,-4.317481 z"
     id="path3876"
     inkscape:connector-curvature="0" />
  <path
     style="fill:none;stroke:#ffffff;stroke-width:3.93161416;stroke-linecap:round;stroke-linejoin:round;stroke-opacity:1"
     d="m 48.060572,162.52102 14.743548,-14.74356 0,24.57259 -24.572587,0 0,58.97422 49.145177,0"
     id="path3025"
     inkscape:connector-curvature="0" />
  <path
     style="fill:#ffffff;fill-opacity:1;stroke:none"
     d="m 48.060569,177.26458 9.829039,0 0,9.82901 -9.829039,0 z"
     id="rect3796"
     inkscape:connector-curvature="0" />
  <path
     style="fill:#ffffff;fill-opacity:1;stroke:none"
     d="m 48.060569,192.00815 9.829039,0 0,9.82901 -9.829039,0 z"
     id="rect3798"
     inkscape:connector-curvature="0" />
  <path
     style="fill:#ffffff;fill-opacity:1;stroke:none"
     d="m 48.060569,206.75171 9.829039,0 0,9.82901 -9.829039,0 z"
     id="rect3800"
     inkscape:connector-curvature="0" />
  <path
     style="fill:none;stroke:#ffffff;stroke-width:2.94871092;stroke-linecap:round;stroke-linejoin:miter;stroke-miterlimit:4;stroke-dasharray:none;stroke-opacity:1"
     d="m 62.80412,182.17909 29.48711,0"
     id="path3802"
     inkscape:connector-curvature="0" />
  <path
     style="fill:none;stroke:#ffffff;stroke-width:2.94871092;stroke-linecap:round;stroke-linejoin:miter;stroke-miterlimit:4;stroke-dasharray:none;stroke-opacity:1"
     d="m 62.80412,196.92265 29.48711,0"
     id="path3804"
     inkscape:connector-curvature="0" />
  <path
     style="fill:none;stroke:#ffffff;stroke-width:2.94871092;stroke-linecap:round;stroke-linejoin:miter;stroke-miterlimit:4;stroke-dasharray:none;stroke-opacity:1"
     d="m 62.80412,211.6662 29.48711,0"
     id="path3806"
     inkscape:connector-curvature="0" />
  <path
     style="fill:none;stroke:#ffffff;stroke-width:4.91451836;stroke-linecap:round;stroke-linejoin:round;stroke-miterlimit:4;stroke-dasharray:none;stroke-opacity:1"
     d="m 426.47843,153.58553 0,33.50807 -13.4032,0"
     id="path3878"
     inkscape:connector-curvature="0"
     sodipodi:nodetypes="ccc" />
  <path
     style="fill:none;stroke:#ffffff;stroke-width:4.91451836;stroke-linecap:round;stroke-linejoin:round;stroke-miterlimit:4;stroke-dasharray:none;stroke-opacity:1"
     d="m 392.0768,196.92265 c 24.5726,5.89742 44.23067,1.96579 62.99522,-3.12743 0,6.70162 -1.78714,32.61452 -28.59359,32.61452"
     id="path3880"
     inkscape:connector-curvature="0"
     sodipodi:nodetypes="ccc" />
  <path
     style="fill:none;stroke:#ffffff;stroke-width:4.91451836;stroke-linecap:round;stroke-linejoin:round;stroke-miterlimit:4;stroke-dasharray:none;stroke-opacity:1"
     d="m 406.82039,211.6662 c 19.65804,4.91452 39.31612,0 45.57092,-5.80806"
     id="path3884"
     inkscape:connector-curvature="0"
     sodipodi:nodetypes="cc" />
  <path
     style="fill:none;stroke:#ffffff;stroke-width:3.93161416;stroke-linecap:round;stroke-linejoin:round;stroke-miterlimit:4;stroke-dasharray:none;stroke-opacity:1"
     d="m 48.060572,265.72588 0,14.74355"
     id="path3904"
     inkscape:connector-curvature="0" />
  <path
     style="fill:none;stroke:#ffffff;stroke-width:3.93161416;stroke-linecap:round;stroke-linejoin:round;stroke-miterlimit:4;stroke-dasharray:none;stroke-opacity:1"
     d="m 92.29123,265.72588 0,14.74355"
     id="path3906"
     inkscape:connector-curvature="0" />
  <path
     style="fill:none;stroke:#ffffff;stroke-width:3.93161416;stroke-linecap:round;stroke-linejoin:round;stroke-miterlimit:4;stroke-dasharray:none;stroke-opacity:1"
     d="m 38.231533,275.55494 63.888737,0"
     id="path3908"
     inkscape:connector-curvature="0"
     sodipodi:nodetypes="cc" />
  <path
     style="fill:none;stroke:#ffffff;stroke-width:3.93161416;stroke-linecap:round;stroke-linejoin:round;stroke-miterlimit:4;stroke-dasharray:none;stroke-opacity:1"
     d="m 38.231533,290.29848 63.888737,0"
     id="path3910"
     inkscape:connector-curvature="0"
     sodipodi:nodetypes="cc" />
  <path
     inkscape:connector-curvature="0"
     id="path3453"
     style="font-style:normal;font-variant:normal;font-weight:bold;font-stretch:normal;font-size:medium;line-height:125%;font-family:'Bebas Neue';-inkscape-font-specification:'Bebas Neue Bold';text-align:start;letter-spacing:0px;word-spacing:0px;writing-mode:lr-tb;text-anchor:start;fill:#ffffff;fill-opacity:1;stroke:none"
     d="m 49.452751,301.54537 c 0,-1.41419 0.622246,-1.95158 1.612183,-1.95158 0.989935,0 1.612181,0.53739 1.612181,1.95158 l 0,10.69132 c 0,1.4142 -0.622246,1.95158 -1.612181,1.95158 -0.989937,0 -1.612183,-0.53738 -1.612183,-1.95158 l 0,-10.69132 z m -3.11123,10.49332 c 0,3.16781 1.668751,4.97798 4.723413,4.97798 3.05466,0 4.723411,-1.81017 4.723411,-4.97798 l 0,-10.29532 c 0,-3.1678 -1.668751,-4.97798 -4.723411,-4.97798 -3.054662,0 -4.723413,1.81018 -4.723413,4.97798 l 0,10.29532 z" />
  <path
     inkscape:connector-curvature="0"
     id="path3455"
     style="font-style:normal;font-variant:normal;font-weight:bold;font-stretch:normal;font-size:medium;line-height:125%;font-family:'Bebas Neue';-inkscape-font-specification:'Bebas Neue Bold';text-align:start;letter-spacing:0px;word-spacing:0px;writing-mode:lr-tb;text-anchor:start;fill:#ffffff;fill-opacity:1;stroke:none"
     d="m 66.9459,301.74337 c 0,-3.1678 -1.66875,-4.97798 -4.72341,-4.97798 -3.054662,0 -4.723412,1.81018 -4.723412,4.97798 l 0,3.62032 c 0,2.91325 1.15964,4.52544 3.450635,4.52544 1.385917,0 2.347567,-0.62225 2.884957,-1.7536 l 0,3.62034 c 0,1.89502 -0.62224,2.4324 -1.72532,2.4324 -0.989933,0 -1.612179,-0.53738 -1.612179,-1.95158 l 0,-0.7071 -2.941526,0 0,0.5091 c 0,3.16781 1.583899,4.97798 4.638565,4.97798 3.22436,0 4.75169,-1.81017 4.75169,-5.14767 l 0,-10.12563 z m -4.72341,5.31737 c -0.989937,0 -1.612183,-0.53741 -1.612183,-1.95159 l 0,-3.56378 c 0,-1.41419 0.622246,-1.9233 1.612183,-1.9233 0.98994,0 1.61218,0.50911 1.61218,1.9233 l 0,3.56378 c 0,1.41418 -0.62224,1.95159 -1.61218,1.95159 z" />
  <path
     style="fill:#ffffff;fill-opacity:1;stroke:none"
     d="m 72.63316,300.1275 4.91452,0 0,4.91453 -4.91452,0 z"
     id="rect3916"
     inkscape:connector-curvature="0" />
  <path
     style="fill:#ffffff;fill-opacity:1;stroke:none"
     d="m 82.46219,300.1275 4.91452,0 0,4.91453 -4.91452,0 z"
     id="rect3918"
     inkscape:connector-curvature="0" />
  <path
     style="fill:#ffffff;fill-opacity:1;stroke:none"
     d="m 92.29123,300.1275 4.91452,0 0,4.91453 -4.91452,0 z"
     id="rect3920"
     inkscape:connector-curvature="0" />
  <path
     style="fill:#ffffff;fill-opacity:1;stroke:none"
     d="m 92.29123,309.95658 4.91452,0 0,4.91451 -4.91452,0 z"
     id="rect3922"
     inkscape:connector-curvature="0" />
  <path
     style="fill:#ffffff;fill-opacity:1;stroke:none"
     d="m 82.46219,309.95658 4.91452,0 0,4.91451 -4.91452,0 z"
     id="rect3924"
     inkscape:connector-curvature="0" />
  <path
     style="fill:#ffffff;fill-opacity:1;stroke:none"
     d="m 72.63316,309.95658 4.91452,0 0,4.91451 -4.91452,0 z"
     id="rect3926"
     inkscape:connector-curvature="0" />
  <path
     style="fill:#ffffff;fill-opacity:1;stroke:none"
     d="m 72.63316,319.78557 4.91452,0 0,4.91453 -4.91452,0 z"
     id="rect3928"
     inkscape:connector-curvature="0" />
  <path
     style="fill:#ffffff;fill-opacity:1;stroke:none"
     d="m 82.46219,319.78557 4.91452,0 0,4.91453 -4.91452,0 z"
     id="rect3930"
     inkscape:connector-curvature="0" />
  <path
     style="fill:#ffffff;fill-opacity:1;stroke:none"
     d="m 92.29123,319.78557 4.91452,0 0,4.91453 -4.91452,0 z"
     id="rect3932"
     inkscape:connector-curvature="0" />
  <path
     style="fill:#ffffff;fill-opacity:1;stroke:none"
     d="m 92.29123,329.6146 4.91452,0 0,4.91453 -4.91452,0 z"
     id="rect3934"
     inkscape:connector-curvature="0" />
  <path
     style="fill:#ffffff;fill-opacity:1;stroke:none"
     d="m 82.46219,329.6146 4.91452,0 0,4.91453 -4.91452,0 z"
     id="rect3936"
     inkscape:connector-curvature="0" />
  <path
     style="fill:#ffffff;fill-opacity:1;stroke:none"
     d="m 72.63316,329.6146 4.91452,0 0,4.91453 -4.91452,0 z"
     id="rect3938"
     inkscape:connector-curvature="0" />
  <path
     style="fill:#ffffff;fill-opacity:1;stroke:none"
     d="m 62.80412,319.78557 4.91452,0 0,4.91453 -4.91452,0 z"
     id="rect3940"
     inkscape:connector-curvature="0" />
  <path
     style="fill:#ffffff;fill-opacity:1;stroke:none"
     d="m 62.80412,329.6146 4.91452,0 0,4.91453 -4.91452,0 z"
     id="rect3942"
     inkscape:connector-curvature="0" />
  <path
     style="fill:#ffffff;fill-opacity:1;stroke:none"
     d="m 52.97509,319.78557 4.914518,0 0,4.91453 -4.914518,0 z"
     id="rect3944"
     inkscape:connector-curvature="0" />
  <path
     style="fill:#ffffff;fill-opacity:1;stroke:none"
     d="m 43.146051,319.78557 4.91452,0 0,4.91453 -4.91452,0 z"
     id="rect3946"
     inkscape:connector-curvature="0" />
  <path
     style="fill:#ffffff;fill-opacity:1;stroke:none"
     d="m 43.146051,329.6146 4.91452,0 0,4.91453 -4.91452,0 z"
     id="rect3948"
     inkscape:connector-curvature="0" />
  <path
     style="fill:#ffffff;fill-opacity:1;stroke:none"
     d="m 52.97509,329.6146 4.914518,0 0,4.91453 -4.914518,0 z"
     id="rect3950"
     inkscape:connector-curvature="0" />
  <path
     style="color:#ffffff;display:inline;overflow:visible;visibility:visible;fill:none;stroke:#ffffff;stroke-width:4.91451788;stroke-linecap:round;stroke-linejoin:round;stroke-miterlimit:4;stroke-dasharray:none;stroke-dashoffset:0;stroke-opacity:1;marker:none;enable-background:accumulate"
     d="m 207.78239,285.38396 a 19.658072,19.658072 0 0 1 -19.65807,19.65807 19.658072,19.658072 0 0 1 -19.65807,-19.65807 19.658072,19.658072 0 0 1 19.65807,-19.65807 19.658072,19.658072 0 0 1 19.65807,19.65807 z"
     id="path3952"
     inkscape:connector-curvature="0" />
  <path
     style="fill:none;stroke:#ffffff;stroke-width:4.91451836;stroke-linecap:round;stroke-linejoin:round;stroke-miterlimit:4;stroke-dasharray:none;stroke-opacity:1"
     d="m 200.41062,349.2727 24.57258,0 -19.65807,-34.40161 -34.40163,0 -19.65806,34.40161 24.57259,0"
     id="path3954"
     inkscape:connector-curvature="0"
     sodipodi:nodetypes="cccccc" />
  <path
     style="color:#ffffff;display:inline;overflow:visible;visibility:visible;fill:#ffffff;stroke:none;stroke-width:1;marker:none;enable-background:accumulate"
     d="m 193.53029,316.34542 a 5.4059697,5.4059697 0 0 1 -2.70299,4.68171 5.4059697,5.4059697 0 0 1 -5.40597,0 5.4059697,5.4059697 0 0 1 -2.70298,-4.68171"
     id="path3956"
     inkscape:connector-curvature="0" />
  <path
     style="fill:#ffffff;stroke:none"
     d="m 188.12432,324.7001 c -2.45726,0 -6.71748,13.1488 -4.91452,19.65807 0.61843,2.23269 4.91452,4.91453 4.91452,4.91453 0,0 4.29611,-2.68184 4.91453,-4.91453 1.80296,-6.50927 -2.45728,-19.65807 -4.91453,-19.65807 z"
     id="path3958"
     inkscape:connector-curvature="0"
     sodipodi:nodetypes="sacas" />
  <path
     style="fill:none;stroke:#ffffff;stroke-width:4.91451788;stroke-linecap:round;stroke-linejoin:round;stroke-miterlimit:4;stroke-dasharray:none;stroke-opacity:1"
     d="m 299.08345,332.67899 -18.19039,-18.19039 27.28559,-39.41254 30.31732,30.31734 -30.01926,20.78258"
     id="path3971"
     inkscape:connector-curvature="0" />
  <path
     style="fill:none;stroke:#ffffff;stroke-width:4.91451788;stroke-linecap:round;stroke-linejoin:round;stroke-miterlimit:4;stroke-dasharray:none;stroke-opacity:1"
     d="m 274.82958,314.4886 -6.06345,12.12693 18.19039,18.19039 4.5741,-2.28704 7.55283,8.35052 27.76108,-19.2192 -8.71395,-12.15768"
     id="path3973"
     inkscape:connector-curvature="0"
     sodipodi:nodetypes="ccccccc" />
  <path
     sodipodi:nodetypes="cc"
     style="fill:none;stroke:#ffffff;stroke-width:4.91451788;stroke-linecap:butt;stroke-linejoin:miter;stroke-miterlimit:4;stroke-dasharray:none;stroke-opacity:1"
     d="m 315.32733,269.90657 3.03173,-9.0952"
     id="path3979"
     inkscape:connector-curvature="0" />
  <path
     sodipodi:nodetypes="cc"
     style="fill:none;stroke:#ffffff;stroke-width:4.91451788;stroke-linecap:butt;stroke-linejoin:miter;stroke-miterlimit:4;stroke-dasharray:none;stroke-opacity:1"
     d="m 343.66548,298.24472 9.09521,-3.03173"
     id="path3981"
     inkscape:connector-curvature="0" />
  <path
     sodipodi:nodetypes="cc"
     style="fill:none;stroke:#ffffff;stroke-width:4.91451788;stroke-linecap:butt;stroke-linejoin:miter;stroke-miterlimit:4;stroke-dasharray:none;stroke-opacity:1"
     d="m 336.26183,277.31023 6.66981,-6.66982"
     id="path3983"
     inkscape:connector-curvature="0" />
  <path
     style="fill:none;stroke:#ffffff;stroke-width:2.94871092;stroke-linecap:round;stroke-linejoin:round;stroke-miterlimit:4;stroke-dasharray:none;stroke-opacity:1"
     d="m 449.58141,266.73717 -36.8589,63.84146"
     id="path3994"
     inkscape:connector-curvature="0" />
  <path
     style="fill:none;stroke:#ffffff;stroke-width:2.94871092;stroke-linecap:round;stroke-linejoin:round;stroke-miterlimit:4;stroke-dasharray:none;stroke-opacity:1"
     d="m 417.63704,322.06642 20.14007,-5.39651 0.65842,-10.96944 4.25609,2.45725 12.2863,-21.28048 -8.5122,-4.91453 7.13797,-0.21417 -4.02228,-15.01137 -20.14007,5.39651 -4.91453,8.51219 1.79884,6.71337 -6.71335,1.79884 -7.37177,12.76828 z"
     id="path3996"
     inkscape:connector-curvature="0"
     sodipodi:nodetypes="cccccccccccccc" />
  <path
     style="fill:none;stroke:#ffffff;stroke-width:2.94871092;stroke-linecap:round;stroke-linejoin:round;stroke-miterlimit:4;stroke-dasharray:none;stroke-opacity:1"
     d="m 427.46607,305.04205 c -1.79884,-6.71337 -1.79884,-6.71337 -1.79884,-6.71337"
     id="path3998"
     inkscape:connector-curvature="0" />
  <path
     style="fill:none;stroke:#ffffff;stroke-width:2.94871092;stroke-linecap:round;stroke-linejoin:round;stroke-miterlimit:4;stroke-dasharray:none;stroke-opacity:1"
     d="m 437.29511,288.01766 6.71335,-1.79884"
     id="path4000"
     inkscape:connector-curvature="0" />
  <path
     style="fill:#ffffff;stroke:#ffffff;stroke-width:2.94871092;stroke-linecap:round;stroke-linejoin:round;stroke-miterlimit:4;stroke-dasharray:none;stroke-opacity:1"
     d="m 402.89348,329.61461 19.65807,0 0,4.91453 9.82903,4.91452 0,9.82904 -39.31614,0 0,-9.82904 9.82904,-4.91452 z"
     id="path4008"
     inkscape:connector-curvature="0"
     sodipodi:nodetypes="ccccccccc" />
  <path
     style="color:#ffffff;display:inline;overflow:visible;visibility:visible;fill:none;stroke:#ffffff;stroke-width:4.91451836;stroke-linecap:round;stroke-linejoin:round;stroke-miterlimit:4;stroke-dasharray:none;stroke-dashoffset:0;stroke-opacity:1;marker:none;enable-background:accumulate"
     d="m 80.35167,463.43679 c 20.97383,-5.61991 33.42062,-27.17841 27.8007,-48.15222 -5.61991,-20.97383 -27.17841,-33.42064 -48.152235,-27.80073 -20.973831,5.61993 -33.420633,27.17843 -27.800711,48.15224 0.205374,0.76647 0.454003,1.51747 0.701142,2.2607 1.414904,-3.39888 4.325847,-6.1516 8.156992,-7.17816 6.554321,-1.75624 13.291351,2.13336 15.047576,8.68772 1.756223,6.55432 -2.1334,13.29132 -8.687721,15.04758 -1.110078,0.29743 -2.228042,0.42554 -3.323516,0.41353 9.550279,8.45994 23.011583,12.11865 36.257773,8.56934 z"
     id="path4018"
     inkscape:connector-curvature="0" />
  <path
     style="color:#ffffff;display:inline;overflow:visible;visibility:visible;fill:none;stroke:#ffffff;stroke-width:4.91451883;stroke-linecap:butt;stroke-linejoin:miter;stroke-miterlimit:4;stroke-dasharray:none;stroke-dashoffset:0;stroke-opacity:1;marker:none;enable-background:accumulate"
     d="m 67.04489,451.75171 a 7.3717781,7.3717781 0 0 1 5.21264,-9.02855 7.3717781,7.3717781 0 0 1 9.02854,5.21264 7.3717781,7.3717781 0 0 1 -5.21263,9.02854 7.3717781,7.3717781 0 0 1 -9.02855,-5.21263 z"
     id="path4037"
     inkscape:connector-curvature="0" />
  <path
     style="color:#ffffff;display:inline;overflow:visible;visibility:visible;fill:#ffffff;stroke:none;stroke-width:1;marker:none;enable-background:accumulate"
     d="m 71.64582,398.04999 a 4.9145179,4.9145179 0 0 1 -4.91451,4.91452 4.9145179,4.9145179 0 0 1 -4.91452,-4.91452 4.9145179,4.9145179 0 0 1 4.91452,-4.91452 4.9145179,4.9145179 0 0 1 4.91451,4.91452 z"
     id="path4039"
     inkscape:connector-curvature="0" />
  <path
     style="color:#ffffff;display:inline;overflow:visible;visibility:visible;fill:#ffffff;stroke:none;stroke-width:1;marker:none;enable-background:accumulate"
     d="m 79.1337,418.77686 a 4.9145179,4.9145179 0 0 1 -4.91452,4.91451 4.9145179,4.9145179 0 0 1 -4.91451,-4.91451 4.9145179,4.9145179 0 0 1 4.91451,-4.91452 4.9145179,4.9145179 0 0 1 4.91452,4.91452 z"
     id="path4041"
     inkscape:connector-curvature="0" />
  <path
     style="color:#ffffff;display:inline;overflow:visible;visibility:visible;fill:#ffffff;stroke:none;stroke-width:1;marker:none;enable-background:accumulate"
     d="m 97.72204,432.47535 a 4.9145179,4.9145179 0 0 1 -4.91452,4.91451 4.9145179,4.9145179 0 0 1 -4.91452,-4.91451 4.9145179,4.9145179 0 0 1 4.91452,-4.91452 4.9145179,4.9145179 0 0 1 4.91452,4.91452 z"
     id="path4043"
     inkscape:connector-curvature="0" />
  <path
     style="color:#ffffff;display:inline;overflow:visible;visibility:visible;fill:#ffffff;stroke:none;stroke-width:1;marker:none;enable-background:accumulate"
     d="m 97.33087,406.97527 a 4.9145179,4.9145179 0 0 1 -4.91452,4.91452 4.9145179,4.9145179 0 0 1 -4.91452,-4.91452 4.9145179,4.9145179 0 0 1 4.91452,-4.91451 4.9145179,4.9145179 0 0 1 4.91452,4.91451 z"
     id="path4045"
     inkscape:connector-curvature="0" />
  <path
     style="color:#ffffff;display:inline;overflow:visible;visibility:visible;fill:#ffffff;stroke:none;stroke-width:1;marker:none;enable-background:accumulate"
     d="m 53.091332,418.25303 a 4.9145179,4.9145179 0 0 1 -4.914518,4.91452 4.9145179,4.9145179 0 0 1 -4.914518,-4.91452 4.9145179,4.9145179 0 0 1 4.914518,-4.91451 4.9145179,4.9145179 0 0 1 4.914518,4.91451 z"
     id="path4049"
     inkscape:connector-curvature="0" />
  <path
     style="color:#ffffff;display:inline;overflow:visible;visibility:visible;fill:none;stroke:#ffffff;stroke-width:4.91451788;stroke-linecap:round;stroke-linejoin:round;stroke-miterlimit:4;stroke-dasharray:none;stroke-dashoffset:0;stroke-opacity:1;marker:none;enable-background:accumulate"
     d="m 227.44046,425.44772 a 39.316143,39.316143 0 0 1 -39.31614,39.31614 39.316143,39.316143 0 0 1 -39.31614,-39.31614 39.316143,39.316143 0 0 1 39.31614,-39.31614 39.316143,39.316143 0 0 1 39.31614,39.31614 z"
     id="path4051"
     inkscape:connector-curvature="0" />
  <path
     style="color:#ffffff;display:inline;overflow:visible;visibility:visible;fill:none;stroke:#ffffff;stroke-width:4.91451788;stroke-linecap:round;stroke-linejoin:round;stroke-miterlimit:4;stroke-dasharray:none;stroke-dashoffset:0;stroke-opacity:1;marker:none;enable-background:accumulate"
     d="m 200.41062,425.44773 a 12.286299,12.286299 0 0 1 -12.2863,12.2863 12.286299,12.286299 0 0 1 -12.2863,-12.2863 12.286299,12.286299 0 0 1 12.2863,-12.2863 12.286299,12.286299 0 0 1 12.2863,12.2863 z"
     id="path4053"
     inkscape:connector-curvature="0" />
  <path
     style="fill:none;stroke:#ffffff;stroke-width:4.91451836;stroke-linecap:butt;stroke-linejoin:miter;stroke-miterlimit:4;stroke-dasharray:none;stroke-opacity:1"
     d="m 200.41062,427.90497 0,-39.31615"
     id="path4073"
     inkscape:connector-curvature="0" />
  <path
     style="fill:none;stroke:#ffffff;stroke-width:4.91451836;stroke-linecap:butt;stroke-linejoin:miter;stroke-miterlimit:4;stroke-dasharray:none;stroke-opacity:1"
     d="m 175.83803,427.90497 0,34.40164"
     id="path4077"
     inkscape:connector-curvature="0" />
  <path
     style="fill:none;stroke:#ffffff;stroke-width:4.91451836;stroke-linecap:butt;stroke-linejoin:miter;stroke-miterlimit:4;stroke-dasharray:none;stroke-opacity:1"
     d="m 185.66706,437.73402 39.31614,0"
     id="path4079"
     inkscape:connector-curvature="0" />
  <path
     style="fill:none;stroke:#ffffff;stroke-width:4.91451836;stroke-linecap:butt;stroke-linejoin:miter;stroke-miterlimit:4;stroke-dasharray:none;stroke-opacity:1"
     d="m 190.58157,413.16142 -39.31613,0"
     id="path4081"
     inkscape:connector-curvature="0" />
  <path
     style="fill:none;stroke:#ffffff;stroke-width:4.91451836;stroke-linecap:butt;stroke-linejoin:miter;stroke-miterlimit:4;stroke-dasharray:none;stroke-opacity:1"
     d="M 196.17726,416.3482 170.9235,391.09441"
     id="path4083"
     inkscape:connector-curvature="0" />
  <path
     style="fill:none;stroke:#ffffff;stroke-width:4.91451836;stroke-linecap:butt;stroke-linejoin:miter;stroke-miterlimit:4;stroke-dasharray:none;stroke-opacity:1"
     d="m 199.72516,428.6615 22.60722,-22.60722"
     id="path4085"
     inkscape:connector-curvature="0" />
  <path
     style="fill:none;stroke:#ffffff;stroke-width:4.91451836;stroke-linecap:butt;stroke-linejoin:miter;stroke-miterlimit:4;stroke-dasharray:none;stroke-opacity:1"
     d="m 185.11616,437.6356 20.20897,24.67101"
     id="path4087"
     inkscape:connector-curvature="0"
     sodipodi:nodetypes="cc" />
  <path
     style="fill:none;stroke:#ffffff;stroke-width:4.91451836;stroke-linecap:butt;stroke-linejoin:miter;stroke-miterlimit:4;stroke-dasharray:none;stroke-opacity:1"
     d="m 176.35075,422.60922 -22.36091,22.36091"
     id="path4089"
     inkscape:connector-curvature="0" />
</svg>
